<mxfile host="app.diagrams.net" agent="Mozilla/5.0 (Windows NT 10.0; Win64; x64) AppleWebKit/537.36 (KHTML, like Gecko) Chrome/134.0.0.0 Safari/537.36" version="26.1.1">
  <diagram name="Page-1" id="nJAUH2nR-29Tj1ZS2kcn">
    <mxGraphModel dx="7958" dy="2873" grid="1" gridSize="10" guides="1" tooltips="1" connect="1" arrows="1" fold="1" page="1" pageScale="1" pageWidth="827" pageHeight="1169" math="0" shadow="0">
      <root>
        <mxCell id="0" />
        <mxCell id="1" parent="0" />
        <mxCell id="Sh8WYW3R7UGOPEOma0MA-6" value="Vertical Tree Layout" style="swimlane;startSize=20;horizontal=1;childLayout=treeLayout;horizontalTree=0;sortEdges=1;resizable=0;containerType=tree;fontSize=12;" vertex="1" parent="1">
          <mxGeometry x="170" y="60" width="8960" height="640" as="geometry" />
        </mxCell>
        <mxCell id="Sh8WYW3R7UGOPEOma0MA-7" value="Root" style="whiteSpace=wrap;html=1;" vertex="1" parent="Sh8WYW3R7UGOPEOma0MA-6">
          <mxGeometry x="4430" y="40" width="100" height="40" as="geometry" />
        </mxCell>
        <mxCell id="Sh8WYW3R7UGOPEOma0MA-8" value="(" style="whiteSpace=wrap;html=1;" vertex="1" parent="Sh8WYW3R7UGOPEOma0MA-6">
          <mxGeometry x="2190" y="130" width="100" height="40" as="geometry" />
        </mxCell>
        <mxCell id="Sh8WYW3R7UGOPEOma0MA-9" value="" style="edgeStyle=elbowEdgeStyle;elbow=vertical;html=1;rounded=1;curved=0;sourcePerimeterSpacing=0;targetPerimeterSpacing=0;startSize=6;endSize=6;" edge="1" parent="Sh8WYW3R7UGOPEOma0MA-6" source="Sh8WYW3R7UGOPEOma0MA-7" target="Sh8WYW3R7UGOPEOma0MA-8">
          <mxGeometry relative="1" as="geometry" />
        </mxCell>
        <mxCell id="Sh8WYW3R7UGOPEOma0MA-10" value=")" style="whiteSpace=wrap;html=1;" vertex="1" parent="Sh8WYW3R7UGOPEOma0MA-6">
          <mxGeometry x="6670" y="130" width="100" height="40" as="geometry" />
        </mxCell>
        <mxCell id="Sh8WYW3R7UGOPEOma0MA-11" value="" style="edgeStyle=elbowEdgeStyle;elbow=vertical;html=1;rounded=1;curved=0;sourcePerimeterSpacing=0;targetPerimeterSpacing=0;startSize=6;endSize=6;" edge="1" parent="Sh8WYW3R7UGOPEOma0MA-6" source="Sh8WYW3R7UGOPEOma0MA-7" target="Sh8WYW3R7UGOPEOma0MA-10">
          <mxGeometry relative="1" as="geometry" />
        </mxCell>
        <mxCell id="Sh8WYW3R7UGOPEOma0MA-16" value="" style="edgeStyle=elbowEdgeStyle;elbow=vertical;html=1;rounded=1;curved=0;sourcePerimeterSpacing=0;targetPerimeterSpacing=0;startSize=6;endSize=6;" edge="1" target="Sh8WYW3R7UGOPEOma0MA-17" source="Sh8WYW3R7UGOPEOma0MA-8" parent="Sh8WYW3R7UGOPEOma0MA-6">
          <mxGeometry relative="1" as="geometry">
            <mxPoint x="-124001.25" y="140" as="sourcePoint" />
          </mxGeometry>
        </mxCell>
        <mxCell id="Sh8WYW3R7UGOPEOma0MA-17" value="((" style="whiteSpace=wrap;html=1;" vertex="1" parent="Sh8WYW3R7UGOPEOma0MA-6">
          <mxGeometry x="1070" y="220" width="100" height="40" as="geometry" />
        </mxCell>
        <mxCell id="Sh8WYW3R7UGOPEOma0MA-18" value="" style="edgeStyle=elbowEdgeStyle;elbow=vertical;html=1;rounded=1;curved=0;sourcePerimeterSpacing=0;targetPerimeterSpacing=0;startSize=6;endSize=6;" edge="1" target="Sh8WYW3R7UGOPEOma0MA-19" source="Sh8WYW3R7UGOPEOma0MA-8" parent="Sh8WYW3R7UGOPEOma0MA-6">
          <mxGeometry relative="1" as="geometry">
            <mxPoint x="-124071.25" y="230" as="sourcePoint" />
          </mxGeometry>
        </mxCell>
        <mxCell id="Sh8WYW3R7UGOPEOma0MA-19" value="()" style="whiteSpace=wrap;html=1;fillColor=#d5e8d4;strokeColor=#82b366;" vertex="1" parent="Sh8WYW3R7UGOPEOma0MA-6">
          <mxGeometry x="3310" y="220" width="100" height="40" as="geometry" />
        </mxCell>
        <mxCell id="Sh8WYW3R7UGOPEOma0MA-20" value="" style="edgeStyle=elbowEdgeStyle;elbow=vertical;html=1;rounded=1;curved=0;sourcePerimeterSpacing=0;targetPerimeterSpacing=0;startSize=6;endSize=6;" edge="1" target="Sh8WYW3R7UGOPEOma0MA-21" source="Sh8WYW3R7UGOPEOma0MA-10" parent="Sh8WYW3R7UGOPEOma0MA-6">
          <mxGeometry relative="1" as="geometry">
            <mxPoint x="-123833.25" y="140" as="sourcePoint" />
          </mxGeometry>
        </mxCell>
        <mxCell id="Sh8WYW3R7UGOPEOma0MA-21" value=")(" style="whiteSpace=wrap;html=1;" vertex="1" parent="Sh8WYW3R7UGOPEOma0MA-6">
          <mxGeometry x="5550" y="220" width="100" height="40" as="geometry" />
        </mxCell>
        <mxCell id="Sh8WYW3R7UGOPEOma0MA-22" value="" style="edgeStyle=elbowEdgeStyle;elbow=vertical;html=1;rounded=1;curved=0;sourcePerimeterSpacing=0;targetPerimeterSpacing=0;startSize=6;endSize=6;" edge="1" target="Sh8WYW3R7UGOPEOma0MA-23" source="Sh8WYW3R7UGOPEOma0MA-10" parent="Sh8WYW3R7UGOPEOma0MA-6">
          <mxGeometry relative="1" as="geometry">
            <mxPoint x="-123728.25" y="230" as="sourcePoint" />
          </mxGeometry>
        </mxCell>
        <mxCell id="Sh8WYW3R7UGOPEOma0MA-23" value="))" style="whiteSpace=wrap;html=1;" vertex="1" parent="Sh8WYW3R7UGOPEOma0MA-6">
          <mxGeometry x="7790" y="220" width="100" height="40" as="geometry" />
        </mxCell>
        <mxCell id="Sh8WYW3R7UGOPEOma0MA-24" value="" style="edgeStyle=elbowEdgeStyle;elbow=vertical;html=1;rounded=1;curved=0;sourcePerimeterSpacing=0;targetPerimeterSpacing=0;startSize=6;endSize=6;" edge="1" target="Sh8WYW3R7UGOPEOma0MA-25" source="Sh8WYW3R7UGOPEOma0MA-17" parent="Sh8WYW3R7UGOPEOma0MA-6">
          <mxGeometry relative="1" as="geometry">
            <mxPoint x="-123763.25" y="230" as="sourcePoint" />
          </mxGeometry>
        </mxCell>
        <mxCell id="Sh8WYW3R7UGOPEOma0MA-25" value="(((" style="whiteSpace=wrap;html=1;" vertex="1" parent="Sh8WYW3R7UGOPEOma0MA-6">
          <mxGeometry x="510" y="310" width="100" height="40" as="geometry" />
        </mxCell>
        <mxCell id="Sh8WYW3R7UGOPEOma0MA-26" value="" style="edgeStyle=elbowEdgeStyle;elbow=vertical;html=1;rounded=1;curved=0;sourcePerimeterSpacing=0;targetPerimeterSpacing=0;startSize=6;endSize=6;" edge="1" target="Sh8WYW3R7UGOPEOma0MA-27" source="Sh8WYW3R7UGOPEOma0MA-17" parent="Sh8WYW3R7UGOPEOma0MA-6">
          <mxGeometry relative="1" as="geometry">
            <mxPoint x="-123833.25" y="320" as="sourcePoint" />
          </mxGeometry>
        </mxCell>
        <mxCell id="Sh8WYW3R7UGOPEOma0MA-27" value="(()" style="whiteSpace=wrap;html=1;" vertex="1" parent="Sh8WYW3R7UGOPEOma0MA-6">
          <mxGeometry x="1630" y="310" width="100" height="40" as="geometry" />
        </mxCell>
        <mxCell id="Sh8WYW3R7UGOPEOma0MA-28" value="" style="edgeStyle=elbowEdgeStyle;elbow=vertical;html=1;rounded=1;curved=0;sourcePerimeterSpacing=0;targetPerimeterSpacing=0;startSize=6;endSize=6;" edge="1" target="Sh8WYW3R7UGOPEOma0MA-29" source="Sh8WYW3R7UGOPEOma0MA-19" parent="Sh8WYW3R7UGOPEOma0MA-6">
          <mxGeometry relative="1" as="geometry">
            <mxPoint x="-123455.25" y="230" as="sourcePoint" />
          </mxGeometry>
        </mxCell>
        <mxCell id="Sh8WYW3R7UGOPEOma0MA-29" value="()(" style="whiteSpace=wrap;html=1;" vertex="1" parent="Sh8WYW3R7UGOPEOma0MA-6">
          <mxGeometry x="2750" y="310" width="100" height="40" as="geometry" />
        </mxCell>
        <mxCell id="Sh8WYW3R7UGOPEOma0MA-30" value="" style="edgeStyle=elbowEdgeStyle;elbow=vertical;html=1;rounded=1;curved=0;sourcePerimeterSpacing=0;targetPerimeterSpacing=0;startSize=6;endSize=6;" edge="1" target="Sh8WYW3R7UGOPEOma0MA-31" source="Sh8WYW3R7UGOPEOma0MA-19" parent="Sh8WYW3R7UGOPEOma0MA-6">
          <mxGeometry relative="1" as="geometry">
            <mxPoint x="-123353.75" y="320" as="sourcePoint" />
          </mxGeometry>
        </mxCell>
        <mxCell id="Sh8WYW3R7UGOPEOma0MA-31" value="())" style="whiteSpace=wrap;html=1;" vertex="1" parent="Sh8WYW3R7UGOPEOma0MA-6">
          <mxGeometry x="3870" y="310" width="100" height="40" as="geometry" />
        </mxCell>
        <mxCell id="Sh8WYW3R7UGOPEOma0MA-32" value="" style="edgeStyle=elbowEdgeStyle;elbow=vertical;html=1;rounded=1;curved=0;sourcePerimeterSpacing=0;targetPerimeterSpacing=0;startSize=6;endSize=6;" edge="1" target="Sh8WYW3R7UGOPEOma0MA-33" source="Sh8WYW3R7UGOPEOma0MA-21" parent="Sh8WYW3R7UGOPEOma0MA-6">
          <mxGeometry relative="1" as="geometry">
            <mxPoint x="-122685.25" y="230" as="sourcePoint" />
          </mxGeometry>
        </mxCell>
        <mxCell id="Sh8WYW3R7UGOPEOma0MA-33" value=")((" style="whiteSpace=wrap;html=1;" vertex="1" parent="Sh8WYW3R7UGOPEOma0MA-6">
          <mxGeometry x="4990" y="310" width="100" height="40" as="geometry" />
        </mxCell>
        <mxCell id="Sh8WYW3R7UGOPEOma0MA-34" value="" style="edgeStyle=elbowEdgeStyle;elbow=vertical;html=1;rounded=1;curved=0;sourcePerimeterSpacing=0;targetPerimeterSpacing=0;startSize=6;endSize=6;" edge="1" target="Sh8WYW3R7UGOPEOma0MA-35" source="Sh8WYW3R7UGOPEOma0MA-21" parent="Sh8WYW3R7UGOPEOma0MA-6">
          <mxGeometry relative="1" as="geometry">
            <mxPoint x="-122748.25" y="320" as="sourcePoint" />
          </mxGeometry>
        </mxCell>
        <mxCell id="Sh8WYW3R7UGOPEOma0MA-35" value=")()" style="whiteSpace=wrap;html=1;" vertex="1" parent="Sh8WYW3R7UGOPEOma0MA-6">
          <mxGeometry x="6110" y="310" width="100" height="40" as="geometry" />
        </mxCell>
        <mxCell id="Sh8WYW3R7UGOPEOma0MA-36" value="" style="edgeStyle=elbowEdgeStyle;elbow=vertical;html=1;rounded=1;curved=0;sourcePerimeterSpacing=0;targetPerimeterSpacing=0;startSize=6;endSize=6;" edge="1" target="Sh8WYW3R7UGOPEOma0MA-37" source="Sh8WYW3R7UGOPEOma0MA-23" parent="Sh8WYW3R7UGOPEOma0MA-6">
          <mxGeometry relative="1" as="geometry">
            <mxPoint x="-122160.25" y="230" as="sourcePoint" />
          </mxGeometry>
        </mxCell>
        <mxCell id="Sh8WYW3R7UGOPEOma0MA-37" value="))(" style="whiteSpace=wrap;html=1;" vertex="1" parent="Sh8WYW3R7UGOPEOma0MA-6">
          <mxGeometry x="7230" y="310" width="100" height="40" as="geometry" />
        </mxCell>
        <mxCell id="Sh8WYW3R7UGOPEOma0MA-38" value="" style="edgeStyle=elbowEdgeStyle;elbow=vertical;html=1;rounded=1;curved=0;sourcePerimeterSpacing=0;targetPerimeterSpacing=0;startSize=6;endSize=6;" edge="1" target="Sh8WYW3R7UGOPEOma0MA-39" source="Sh8WYW3R7UGOPEOma0MA-23" parent="Sh8WYW3R7UGOPEOma0MA-6">
          <mxGeometry relative="1" as="geometry">
            <mxPoint x="-122051.75" y="320" as="sourcePoint" />
          </mxGeometry>
        </mxCell>
        <mxCell id="Sh8WYW3R7UGOPEOma0MA-39" value=")))" style="whiteSpace=wrap;html=1;" vertex="1" parent="Sh8WYW3R7UGOPEOma0MA-6">
          <mxGeometry x="8350" y="310" width="100" height="40" as="geometry" />
        </mxCell>
        <mxCell id="Sh8WYW3R7UGOPEOma0MA-40" value="" style="edgeStyle=elbowEdgeStyle;elbow=vertical;html=1;rounded=1;curved=0;sourcePerimeterSpacing=0;targetPerimeterSpacing=0;startSize=6;endSize=6;" edge="1" target="Sh8WYW3R7UGOPEOma0MA-41" source="Sh8WYW3R7UGOPEOma0MA-25" parent="Sh8WYW3R7UGOPEOma0MA-6">
          <mxGeometry relative="1" as="geometry">
            <mxPoint x="-122839.25" y="320" as="sourcePoint" />
          </mxGeometry>
        </mxCell>
        <mxCell id="Sh8WYW3R7UGOPEOma0MA-41" value="((((" style="whiteSpace=wrap;html=1;" vertex="1" parent="Sh8WYW3R7UGOPEOma0MA-6">
          <mxGeometry x="230" y="400" width="100" height="40" as="geometry" />
        </mxCell>
        <mxCell id="Sh8WYW3R7UGOPEOma0MA-42" value="" style="edgeStyle=elbowEdgeStyle;elbow=vertical;html=1;rounded=1;curved=0;sourcePerimeterSpacing=0;targetPerimeterSpacing=0;startSize=6;endSize=6;" edge="1" target="Sh8WYW3R7UGOPEOma0MA-43" source="Sh8WYW3R7UGOPEOma0MA-25" parent="Sh8WYW3R7UGOPEOma0MA-6">
          <mxGeometry relative="1" as="geometry">
            <mxPoint x="-122909.25" y="410" as="sourcePoint" />
          </mxGeometry>
        </mxCell>
        <mxCell id="Sh8WYW3R7UGOPEOma0MA-43" value="((()" style="whiteSpace=wrap;html=1;" vertex="1" parent="Sh8WYW3R7UGOPEOma0MA-6">
          <mxGeometry x="790" y="400" width="100" height="40" as="geometry" />
        </mxCell>
        <mxCell id="Sh8WYW3R7UGOPEOma0MA-44" value="" style="edgeStyle=elbowEdgeStyle;elbow=vertical;html=1;rounded=1;curved=0;sourcePerimeterSpacing=0;targetPerimeterSpacing=0;startSize=6;endSize=6;" edge="1" target="Sh8WYW3R7UGOPEOma0MA-45" source="Sh8WYW3R7UGOPEOma0MA-27" parent="Sh8WYW3R7UGOPEOma0MA-6">
          <mxGeometry relative="1" as="geometry">
            <mxPoint x="-122251.25" y="320" as="sourcePoint" />
          </mxGeometry>
        </mxCell>
        <mxCell id="Sh8WYW3R7UGOPEOma0MA-45" value="(()(" style="whiteSpace=wrap;html=1;" vertex="1" parent="Sh8WYW3R7UGOPEOma0MA-6">
          <mxGeometry x="1350" y="400" width="100" height="40" as="geometry" />
        </mxCell>
        <mxCell id="Sh8WYW3R7UGOPEOma0MA-46" value="" style="edgeStyle=elbowEdgeStyle;elbow=vertical;html=1;rounded=1;curved=0;sourcePerimeterSpacing=0;targetPerimeterSpacing=0;startSize=6;endSize=6;" edge="1" target="Sh8WYW3R7UGOPEOma0MA-47" source="Sh8WYW3R7UGOPEOma0MA-27" parent="Sh8WYW3R7UGOPEOma0MA-6">
          <mxGeometry relative="1" as="geometry">
            <mxPoint x="-122151.5" y="410" as="sourcePoint" />
          </mxGeometry>
        </mxCell>
        <mxCell id="Sh8WYW3R7UGOPEOma0MA-47" value="(())" style="whiteSpace=wrap;html=1;fillColor=#d5e8d4;strokeColor=#82b366;" vertex="1" parent="Sh8WYW3R7UGOPEOma0MA-6">
          <mxGeometry x="1910" y="400" width="100" height="40" as="geometry" />
        </mxCell>
        <mxCell id="Sh8WYW3R7UGOPEOma0MA-48" value="" style="edgeStyle=elbowEdgeStyle;elbow=vertical;html=1;rounded=1;curved=0;sourcePerimeterSpacing=0;targetPerimeterSpacing=0;startSize=6;endSize=6;" edge="1" target="Sh8WYW3R7UGOPEOma0MA-49" source="Sh8WYW3R7UGOPEOma0MA-29" parent="Sh8WYW3R7UGOPEOma0MA-6">
          <mxGeometry relative="1" as="geometry">
            <mxPoint x="-121194.25" y="320" as="sourcePoint" />
          </mxGeometry>
        </mxCell>
        <mxCell id="Sh8WYW3R7UGOPEOma0MA-49" value="()((" style="whiteSpace=wrap;html=1;" vertex="1" parent="Sh8WYW3R7UGOPEOma0MA-6">
          <mxGeometry x="2470" y="400" width="100" height="40" as="geometry" />
        </mxCell>
        <mxCell id="Sh8WYW3R7UGOPEOma0MA-50" value="" style="edgeStyle=elbowEdgeStyle;elbow=vertical;html=1;rounded=1;curved=0;sourcePerimeterSpacing=0;targetPerimeterSpacing=0;startSize=6;endSize=6;" edge="1" target="Sh8WYW3R7UGOPEOma0MA-51" source="Sh8WYW3R7UGOPEOma0MA-29" parent="Sh8WYW3R7UGOPEOma0MA-6">
          <mxGeometry relative="1" as="geometry">
            <mxPoint x="-121260.75" y="410" as="sourcePoint" />
          </mxGeometry>
        </mxCell>
        <mxCell id="Sh8WYW3R7UGOPEOma0MA-51" value="()()" style="whiteSpace=wrap;html=1;fillColor=#d5e8d4;strokeColor=#82b366;" vertex="1" parent="Sh8WYW3R7UGOPEOma0MA-6">
          <mxGeometry x="3030" y="400" width="100" height="40" as="geometry" />
        </mxCell>
        <mxCell id="Sh8WYW3R7UGOPEOma0MA-52" value="" style="edgeStyle=elbowEdgeStyle;elbow=vertical;html=1;rounded=1;curved=0;sourcePerimeterSpacing=0;targetPerimeterSpacing=0;startSize=6;endSize=6;" edge="1" target="Sh8WYW3R7UGOPEOma0MA-53" source="Sh8WYW3R7UGOPEOma0MA-31" parent="Sh8WYW3R7UGOPEOma0MA-6">
          <mxGeometry relative="1" as="geometry">
            <mxPoint x="-120357.75" y="320" as="sourcePoint" />
          </mxGeometry>
        </mxCell>
        <mxCell id="Sh8WYW3R7UGOPEOma0MA-53" value="())(" style="whiteSpace=wrap;html=1;" vertex="1" parent="Sh8WYW3R7UGOPEOma0MA-6">
          <mxGeometry x="3590" y="400" width="100" height="40" as="geometry" />
        </mxCell>
        <mxCell id="Sh8WYW3R7UGOPEOma0MA-54" value="" style="edgeStyle=elbowEdgeStyle;elbow=vertical;html=1;rounded=1;curved=0;sourcePerimeterSpacing=0;targetPerimeterSpacing=0;startSize=6;endSize=6;" edge="1" target="Sh8WYW3R7UGOPEOma0MA-55" source="Sh8WYW3R7UGOPEOma0MA-31" parent="Sh8WYW3R7UGOPEOma0MA-6">
          <mxGeometry relative="1" as="geometry">
            <mxPoint x="-120254.5" y="410" as="sourcePoint" />
          </mxGeometry>
        </mxCell>
        <mxCell id="Sh8WYW3R7UGOPEOma0MA-55" value="()))" style="whiteSpace=wrap;html=1;" vertex="1" parent="Sh8WYW3R7UGOPEOma0MA-6">
          <mxGeometry x="4150" y="400" width="100" height="40" as="geometry" />
        </mxCell>
        <mxCell id="Sh8WYW3R7UGOPEOma0MA-56" value="" style="edgeStyle=elbowEdgeStyle;elbow=vertical;html=1;rounded=1;curved=0;sourcePerimeterSpacing=0;targetPerimeterSpacing=0;startSize=6;endSize=6;" edge="1" target="Sh8WYW3R7UGOPEOma0MA-57" source="Sh8WYW3R7UGOPEOma0MA-33" parent="Sh8WYW3R7UGOPEOma0MA-6">
          <mxGeometry relative="1" as="geometry">
            <mxPoint x="-119087.25" y="320" as="sourcePoint" />
          </mxGeometry>
        </mxCell>
        <mxCell id="Sh8WYW3R7UGOPEOma0MA-57" value=")(((" style="whiteSpace=wrap;html=1;" vertex="1" parent="Sh8WYW3R7UGOPEOma0MA-6">
          <mxGeometry x="4710" y="400" width="100" height="40" as="geometry" />
        </mxCell>
        <mxCell id="Sh8WYW3R7UGOPEOma0MA-58" value="" style="edgeStyle=elbowEdgeStyle;elbow=vertical;html=1;rounded=1;curved=0;sourcePerimeterSpacing=0;targetPerimeterSpacing=0;startSize=6;endSize=6;" edge="1" target="Sh8WYW3R7UGOPEOma0MA-59" source="Sh8WYW3R7UGOPEOma0MA-33" parent="Sh8WYW3R7UGOPEOma0MA-6">
          <mxGeometry relative="1" as="geometry">
            <mxPoint x="-119150.25" y="410" as="sourcePoint" />
          </mxGeometry>
        </mxCell>
        <mxCell id="Sh8WYW3R7UGOPEOma0MA-59" value=")(()" style="whiteSpace=wrap;html=1;" vertex="1" parent="Sh8WYW3R7UGOPEOma0MA-6">
          <mxGeometry x="5270" y="400" width="100" height="40" as="geometry" />
        </mxCell>
        <mxCell id="Sh8WYW3R7UGOPEOma0MA-60" value="" style="edgeStyle=elbowEdgeStyle;elbow=vertical;html=1;rounded=1;curved=0;sourcePerimeterSpacing=0;targetPerimeterSpacing=0;startSize=6;endSize=6;" edge="1" target="Sh8WYW3R7UGOPEOma0MA-61" source="Sh8WYW3R7UGOPEOma0MA-35" parent="Sh8WYW3R7UGOPEOma0MA-6">
          <mxGeometry relative="1" as="geometry">
            <mxPoint x="-118072.25" y="320" as="sourcePoint" />
          </mxGeometry>
        </mxCell>
        <mxCell id="Sh8WYW3R7UGOPEOma0MA-61" value=")()(" style="whiteSpace=wrap;html=1;" vertex="1" parent="Sh8WYW3R7UGOPEOma0MA-6">
          <mxGeometry x="5830" y="400" width="100" height="40" as="geometry" />
        </mxCell>
        <mxCell id="Sh8WYW3R7UGOPEOma0MA-62" value="" style="edgeStyle=elbowEdgeStyle;elbow=vertical;html=1;rounded=1;curved=0;sourcePerimeterSpacing=0;targetPerimeterSpacing=0;startSize=6;endSize=6;" edge="1" target="Sh8WYW3R7UGOPEOma0MA-63" source="Sh8WYW3R7UGOPEOma0MA-35" parent="Sh8WYW3R7UGOPEOma0MA-6">
          <mxGeometry relative="1" as="geometry">
            <mxPoint x="-117965.5" y="410" as="sourcePoint" />
          </mxGeometry>
        </mxCell>
        <mxCell id="Sh8WYW3R7UGOPEOma0MA-63" value=")())" style="whiteSpace=wrap;html=1;" vertex="1" parent="Sh8WYW3R7UGOPEOma0MA-6">
          <mxGeometry x="6390" y="400" width="100" height="40" as="geometry" />
        </mxCell>
        <mxCell id="Sh8WYW3R7UGOPEOma0MA-64" value="" style="edgeStyle=elbowEdgeStyle;elbow=vertical;html=1;rounded=1;curved=0;sourcePerimeterSpacing=0;targetPerimeterSpacing=0;startSize=6;endSize=6;" edge="1" target="Sh8WYW3R7UGOPEOma0MA-65" source="Sh8WYW3R7UGOPEOma0MA-37" parent="Sh8WYW3R7UGOPEOma0MA-6">
          <mxGeometry relative="1" as="geometry">
            <mxPoint x="-116658.25" y="320" as="sourcePoint" />
          </mxGeometry>
        </mxCell>
        <mxCell id="Sh8WYW3R7UGOPEOma0MA-65" value="))((" style="whiteSpace=wrap;html=1;" vertex="1" parent="Sh8WYW3R7UGOPEOma0MA-6">
          <mxGeometry x="6950" y="400" width="100" height="40" as="geometry" />
        </mxCell>
        <mxCell id="Sh8WYW3R7UGOPEOma0MA-66" value="" style="edgeStyle=elbowEdgeStyle;elbow=vertical;html=1;rounded=1;curved=0;sourcePerimeterSpacing=0;targetPerimeterSpacing=0;startSize=6;endSize=6;" edge="1" target="Sh8WYW3R7UGOPEOma0MA-67" source="Sh8WYW3R7UGOPEOma0MA-37" parent="Sh8WYW3R7UGOPEOma0MA-6">
          <mxGeometry relative="1" as="geometry">
            <mxPoint x="-116717.75" y="410" as="sourcePoint" />
          </mxGeometry>
        </mxCell>
        <mxCell id="Sh8WYW3R7UGOPEOma0MA-67" value="))()" style="whiteSpace=wrap;html=1;" vertex="1" parent="Sh8WYW3R7UGOPEOma0MA-6">
          <mxGeometry x="7510" y="400" width="100" height="40" as="geometry" />
        </mxCell>
        <mxCell id="Sh8WYW3R7UGOPEOma0MA-68" value="" style="edgeStyle=elbowEdgeStyle;elbow=vertical;html=1;rounded=1;curved=0;sourcePerimeterSpacing=0;targetPerimeterSpacing=0;startSize=6;endSize=6;" edge="1" target="Sh8WYW3R7UGOPEOma0MA-69" source="Sh8WYW3R7UGOPEOma0MA-39" parent="Sh8WYW3R7UGOPEOma0MA-6">
          <mxGeometry relative="1" as="geometry">
            <mxPoint x="-115534.75" y="320" as="sourcePoint" />
          </mxGeometry>
        </mxCell>
        <mxCell id="Sh8WYW3R7UGOPEOma0MA-69" value=")))(" style="whiteSpace=wrap;html=1;" vertex="1" parent="Sh8WYW3R7UGOPEOma0MA-6">
          <mxGeometry x="8070" y="400" width="100" height="40" as="geometry" />
        </mxCell>
        <mxCell id="Sh8WYW3R7UGOPEOma0MA-70" value="" style="edgeStyle=elbowEdgeStyle;elbow=vertical;html=1;rounded=1;curved=0;sourcePerimeterSpacing=0;targetPerimeterSpacing=0;startSize=6;endSize=6;" edge="1" target="Sh8WYW3R7UGOPEOma0MA-71" source="Sh8WYW3R7UGOPEOma0MA-39" parent="Sh8WYW3R7UGOPEOma0MA-6">
          <mxGeometry relative="1" as="geometry">
            <mxPoint x="-115424.5" y="410" as="sourcePoint" />
          </mxGeometry>
        </mxCell>
        <mxCell id="Sh8WYW3R7UGOPEOma0MA-71" value="))))" style="whiteSpace=wrap;html=1;" vertex="1" parent="Sh8WYW3R7UGOPEOma0MA-6">
          <mxGeometry x="8630" y="400" width="100" height="40" as="geometry" />
        </mxCell>
        <mxCell id="Sh8WYW3R7UGOPEOma0MA-72" value="" style="edgeStyle=elbowEdgeStyle;elbow=vertical;html=1;rounded=1;curved=0;sourcePerimeterSpacing=0;targetPerimeterSpacing=0;startSize=6;endSize=6;" edge="1" target="Sh8WYW3R7UGOPEOma0MA-73" source="Sh8WYW3R7UGOPEOma0MA-41" parent="Sh8WYW3R7UGOPEOma0MA-6">
          <mxGeometry relative="1" as="geometry">
            <mxPoint x="-117323.25" y="410" as="sourcePoint" />
          </mxGeometry>
        </mxCell>
        <mxCell id="Sh8WYW3R7UGOPEOma0MA-73" value="(((((" style="whiteSpace=wrap;html=1;" vertex="1" parent="Sh8WYW3R7UGOPEOma0MA-6">
          <mxGeometry x="90" y="490" width="100" height="40" as="geometry" />
        </mxCell>
        <mxCell id="Sh8WYW3R7UGOPEOma0MA-74" value="" style="edgeStyle=elbowEdgeStyle;elbow=vertical;html=1;rounded=1;curved=0;sourcePerimeterSpacing=0;targetPerimeterSpacing=0;startSize=6;endSize=6;" edge="1" target="Sh8WYW3R7UGOPEOma0MA-75" source="Sh8WYW3R7UGOPEOma0MA-41" parent="Sh8WYW3R7UGOPEOma0MA-6">
          <mxGeometry relative="1" as="geometry">
            <mxPoint x="-117393.25" y="500" as="sourcePoint" />
          </mxGeometry>
        </mxCell>
        <mxCell id="Sh8WYW3R7UGOPEOma0MA-75" value="(((()" style="whiteSpace=wrap;html=1;" vertex="1" parent="Sh8WYW3R7UGOPEOma0MA-6">
          <mxGeometry x="370" y="490" width="100" height="40" as="geometry" />
        </mxCell>
        <mxCell id="Sh8WYW3R7UGOPEOma0MA-76" value="" style="edgeStyle=elbowEdgeStyle;elbow=vertical;html=1;rounded=1;curved=0;sourcePerimeterSpacing=0;targetPerimeterSpacing=0;startSize=6;endSize=6;" edge="1" target="Sh8WYW3R7UGOPEOma0MA-77" source="Sh8WYW3R7UGOPEOma0MA-43" parent="Sh8WYW3R7UGOPEOma0MA-6">
          <mxGeometry relative="1" as="geometry">
            <mxPoint x="-116175.25" y="410" as="sourcePoint" />
          </mxGeometry>
        </mxCell>
        <mxCell id="Sh8WYW3R7UGOPEOma0MA-77" value="((()(" style="whiteSpace=wrap;html=1;" vertex="1" parent="Sh8WYW3R7UGOPEOma0MA-6">
          <mxGeometry x="650" y="490" width="100" height="40" as="geometry" />
        </mxCell>
        <mxCell id="Sh8WYW3R7UGOPEOma0MA-78" value="" style="edgeStyle=elbowEdgeStyle;elbow=vertical;html=1;rounded=1;curved=0;sourcePerimeterSpacing=0;targetPerimeterSpacing=0;startSize=6;endSize=6;" edge="1" target="Sh8WYW3R7UGOPEOma0MA-79" source="Sh8WYW3R7UGOPEOma0MA-43" parent="Sh8WYW3R7UGOPEOma0MA-6">
          <mxGeometry relative="1" as="geometry">
            <mxPoint x="-116076.375" y="500" as="sourcePoint" />
          </mxGeometry>
        </mxCell>
        <mxCell id="Sh8WYW3R7UGOPEOma0MA-79" value="((())" style="whiteSpace=wrap;html=1;" vertex="1" parent="Sh8WYW3R7UGOPEOma0MA-6">
          <mxGeometry x="930" y="490" width="100" height="40" as="geometry" />
        </mxCell>
        <mxCell id="Sh8WYW3R7UGOPEOma0MA-80" value="" style="edgeStyle=elbowEdgeStyle;elbow=vertical;html=1;rounded=1;curved=0;sourcePerimeterSpacing=0;targetPerimeterSpacing=0;startSize=6;endSize=6;" edge="1" target="Sh8WYW3R7UGOPEOma0MA-81" source="Sh8WYW3R7UGOPEOma0MA-45" parent="Sh8WYW3R7UGOPEOma0MA-6">
          <mxGeometry relative="1" as="geometry">
            <mxPoint x="-114554.75" y="410" as="sourcePoint" />
          </mxGeometry>
        </mxCell>
        <mxCell id="Sh8WYW3R7UGOPEOma0MA-81" value="(()((" style="whiteSpace=wrap;html=1;" vertex="1" parent="Sh8WYW3R7UGOPEOma0MA-6">
          <mxGeometry x="1210" y="490" width="100" height="40" as="geometry" />
        </mxCell>
        <mxCell id="Sh8WYW3R7UGOPEOma0MA-82" value="" style="edgeStyle=elbowEdgeStyle;elbow=vertical;html=1;rounded=1;curved=0;sourcePerimeterSpacing=0;targetPerimeterSpacing=0;startSize=6;endSize=6;" edge="1" target="Sh8WYW3R7UGOPEOma0MA-83" source="Sh8WYW3R7UGOPEOma0MA-45" parent="Sh8WYW3R7UGOPEOma0MA-6">
          <mxGeometry relative="1" as="geometry">
            <mxPoint x="-114623" y="500" as="sourcePoint" />
          </mxGeometry>
        </mxCell>
        <mxCell id="Sh8WYW3R7UGOPEOma0MA-83" value="(()()" style="whiteSpace=wrap;html=1;" vertex="1" parent="Sh8WYW3R7UGOPEOma0MA-6">
          <mxGeometry x="1490" y="490" width="100" height="40" as="geometry" />
        </mxCell>
        <mxCell id="Sh8WYW3R7UGOPEOma0MA-84" value="" style="edgeStyle=elbowEdgeStyle;elbow=vertical;html=1;rounded=1;curved=0;sourcePerimeterSpacing=0;targetPerimeterSpacing=0;startSize=6;endSize=6;" edge="1" target="Sh8WYW3R7UGOPEOma0MA-85" source="Sh8WYW3R7UGOPEOma0MA-47" parent="Sh8WYW3R7UGOPEOma0MA-6">
          <mxGeometry relative="1" as="geometry">
            <mxPoint x="-113142.5" y="410" as="sourcePoint" />
          </mxGeometry>
        </mxCell>
        <mxCell id="Sh8WYW3R7UGOPEOma0MA-85" value="(())(" style="whiteSpace=wrap;html=1;" vertex="1" parent="Sh8WYW3R7UGOPEOma0MA-6">
          <mxGeometry x="1770" y="490" width="100" height="40" as="geometry" />
        </mxCell>
        <mxCell id="Sh8WYW3R7UGOPEOma0MA-86" value="" style="edgeStyle=elbowEdgeStyle;elbow=vertical;html=1;rounded=1;curved=0;sourcePerimeterSpacing=0;targetPerimeterSpacing=0;startSize=6;endSize=6;" edge="1" target="Sh8WYW3R7UGOPEOma0MA-87" source="Sh8WYW3R7UGOPEOma0MA-47" parent="Sh8WYW3R7UGOPEOma0MA-6">
          <mxGeometry relative="1" as="geometry">
            <mxPoint x="-113041.875" y="500" as="sourcePoint" />
          </mxGeometry>
        </mxCell>
        <mxCell id="Sh8WYW3R7UGOPEOma0MA-87" value="(()))" style="whiteSpace=wrap;html=1;" vertex="1" parent="Sh8WYW3R7UGOPEOma0MA-6">
          <mxGeometry x="2050" y="490" width="100" height="40" as="geometry" />
        </mxCell>
        <mxCell id="Sh8WYW3R7UGOPEOma0MA-88" value="" style="edgeStyle=elbowEdgeStyle;elbow=vertical;html=1;rounded=1;curved=0;sourcePerimeterSpacing=0;targetPerimeterSpacing=0;startSize=6;endSize=6;" edge="1" target="Sh8WYW3R7UGOPEOma0MA-89" source="Sh8WYW3R7UGOPEOma0MA-49" parent="Sh8WYW3R7UGOPEOma0MA-6">
          <mxGeometry relative="1" as="geometry">
            <mxPoint x="-111275.25" y="410" as="sourcePoint" />
          </mxGeometry>
        </mxCell>
        <mxCell id="Sh8WYW3R7UGOPEOma0MA-89" value="()(((" style="whiteSpace=wrap;html=1;" vertex="1" parent="Sh8WYW3R7UGOPEOma0MA-6">
          <mxGeometry x="2330" y="490" width="100" height="40" as="geometry" />
        </mxCell>
        <mxCell id="Sh8WYW3R7UGOPEOma0MA-90" value="" style="edgeStyle=elbowEdgeStyle;elbow=vertical;html=1;rounded=1;curved=0;sourcePerimeterSpacing=0;targetPerimeterSpacing=0;startSize=6;endSize=6;" edge="1" target="Sh8WYW3R7UGOPEOma0MA-91" source="Sh8WYW3R7UGOPEOma0MA-49" parent="Sh8WYW3R7UGOPEOma0MA-6">
          <mxGeometry relative="1" as="geometry">
            <mxPoint x="-111341.75" y="500" as="sourcePoint" />
          </mxGeometry>
        </mxCell>
        <mxCell id="Sh8WYW3R7UGOPEOma0MA-91" value="()(()" style="whiteSpace=wrap;html=1;" vertex="1" parent="Sh8WYW3R7UGOPEOma0MA-6">
          <mxGeometry x="2610" y="490" width="100" height="40" as="geometry" />
        </mxCell>
        <mxCell id="Sh8WYW3R7UGOPEOma0MA-92" value="" style="edgeStyle=elbowEdgeStyle;elbow=vertical;html=1;rounded=1;curved=0;sourcePerimeterSpacing=0;targetPerimeterSpacing=0;startSize=6;endSize=6;" edge="1" target="Sh8WYW3R7UGOPEOma0MA-93" source="Sh8WYW3R7UGOPEOma0MA-51" parent="Sh8WYW3R7UGOPEOma0MA-6">
          <mxGeometry relative="1" as="geometry">
            <mxPoint x="-109633.75" y="410" as="sourcePoint" />
          </mxGeometry>
        </mxCell>
        <mxCell id="Sh8WYW3R7UGOPEOma0MA-93" value="()()(" style="whiteSpace=wrap;html=1;" vertex="1" parent="Sh8WYW3R7UGOPEOma0MA-6">
          <mxGeometry x="2890" y="490" width="100" height="40" as="geometry" />
        </mxCell>
        <mxCell id="Sh8WYW3R7UGOPEOma0MA-94" value="" style="edgeStyle=elbowEdgeStyle;elbow=vertical;html=1;rounded=1;curved=0;sourcePerimeterSpacing=0;targetPerimeterSpacing=0;startSize=6;endSize=6;" edge="1" target="Sh8WYW3R7UGOPEOma0MA-95" source="Sh8WYW3R7UGOPEOma0MA-51" parent="Sh8WYW3R7UGOPEOma0MA-6">
          <mxGeometry relative="1" as="geometry">
            <mxPoint x="-109531.375" y="500" as="sourcePoint" />
          </mxGeometry>
        </mxCell>
        <mxCell id="Sh8WYW3R7UGOPEOma0MA-95" value="()())" style="whiteSpace=wrap;html=1;" vertex="1" parent="Sh8WYW3R7UGOPEOma0MA-6">
          <mxGeometry x="3170" y="490" width="100" height="40" as="geometry" />
        </mxCell>
        <mxCell id="Sh8WYW3R7UGOPEOma0MA-96" value="" style="edgeStyle=elbowEdgeStyle;elbow=vertical;html=1;rounded=1;curved=0;sourcePerimeterSpacing=0;targetPerimeterSpacing=0;startSize=6;endSize=6;" edge="1" target="Sh8WYW3R7UGOPEOma0MA-97" source="Sh8WYW3R7UGOPEOma0MA-53" parent="Sh8WYW3R7UGOPEOma0MA-6">
          <mxGeometry relative="1" as="geometry">
            <mxPoint x="-107554.75" y="410" as="sourcePoint" />
          </mxGeometry>
        </mxCell>
        <mxCell id="Sh8WYW3R7UGOPEOma0MA-97" value="())((" style="whiteSpace=wrap;html=1;" vertex="1" parent="Sh8WYW3R7UGOPEOma0MA-6">
          <mxGeometry x="3450" y="490" width="100" height="40" as="geometry" />
        </mxCell>
        <mxCell id="Sh8WYW3R7UGOPEOma0MA-98" value="" style="edgeStyle=elbowEdgeStyle;elbow=vertical;html=1;rounded=1;curved=0;sourcePerimeterSpacing=0;targetPerimeterSpacing=0;startSize=6;endSize=6;" edge="1" target="Sh8WYW3R7UGOPEOma0MA-99" source="Sh8WYW3R7UGOPEOma0MA-53" parent="Sh8WYW3R7UGOPEOma0MA-6">
          <mxGeometry relative="1" as="geometry">
            <mxPoint x="-107619.5" y="500" as="sourcePoint" />
          </mxGeometry>
        </mxCell>
        <mxCell id="Sh8WYW3R7UGOPEOma0MA-99" value="())()" style="whiteSpace=wrap;html=1;" vertex="1" parent="Sh8WYW3R7UGOPEOma0MA-6">
          <mxGeometry x="3730" y="490" width="100" height="40" as="geometry" />
        </mxCell>
        <mxCell id="Sh8WYW3R7UGOPEOma0MA-100" value="" style="edgeStyle=elbowEdgeStyle;elbow=vertical;html=1;rounded=1;curved=0;sourcePerimeterSpacing=0;targetPerimeterSpacing=0;startSize=6;endSize=6;" edge="1" target="Sh8WYW3R7UGOPEOma0MA-101" source="Sh8WYW3R7UGOPEOma0MA-55" parent="Sh8WYW3R7UGOPEOma0MA-6">
          <mxGeometry relative="1" as="geometry">
            <mxPoint x="-105719" y="410" as="sourcePoint" />
          </mxGeometry>
        </mxCell>
        <mxCell id="Sh8WYW3R7UGOPEOma0MA-101" value="()))(" style="whiteSpace=wrap;html=1;" vertex="1" parent="Sh8WYW3R7UGOPEOma0MA-6">
          <mxGeometry x="4010" y="490" width="100" height="40" as="geometry" />
        </mxCell>
        <mxCell id="Sh8WYW3R7UGOPEOma0MA-102" value="" style="edgeStyle=elbowEdgeStyle;elbow=vertical;html=1;rounded=1;curved=0;sourcePerimeterSpacing=0;targetPerimeterSpacing=0;startSize=6;endSize=6;" edge="1" target="Sh8WYW3R7UGOPEOma0MA-103" source="Sh8WYW3R7UGOPEOma0MA-55" parent="Sh8WYW3R7UGOPEOma0MA-6">
          <mxGeometry relative="1" as="geometry">
            <mxPoint x="-105614.875" y="500" as="sourcePoint" />
          </mxGeometry>
        </mxCell>
        <mxCell id="Sh8WYW3R7UGOPEOma0MA-103" value="())))" style="whiteSpace=wrap;html=1;" vertex="1" parent="Sh8WYW3R7UGOPEOma0MA-6">
          <mxGeometry x="4290" y="490" width="100" height="40" as="geometry" />
        </mxCell>
        <mxCell id="Sh8WYW3R7UGOPEOma0MA-104" value="" style="edgeStyle=elbowEdgeStyle;elbow=vertical;html=1;rounded=1;curved=0;sourcePerimeterSpacing=0;targetPerimeterSpacing=0;startSize=6;endSize=6;" edge="1" target="Sh8WYW3R7UGOPEOma0MA-105" source="Sh8WYW3R7UGOPEOma0MA-57" parent="Sh8WYW3R7UGOPEOma0MA-6">
          <mxGeometry relative="1" as="geometry">
            <mxPoint x="-103463.25" y="410" as="sourcePoint" />
          </mxGeometry>
        </mxCell>
        <mxCell id="Sh8WYW3R7UGOPEOma0MA-105" value=")((((" style="whiteSpace=wrap;html=1;" vertex="1" parent="Sh8WYW3R7UGOPEOma0MA-6">
          <mxGeometry x="4570" y="490" width="100" height="40" as="geometry" />
        </mxCell>
        <mxCell id="Sh8WYW3R7UGOPEOma0MA-106" value="" style="edgeStyle=elbowEdgeStyle;elbow=vertical;html=1;rounded=1;curved=0;sourcePerimeterSpacing=0;targetPerimeterSpacing=0;startSize=6;endSize=6;" edge="1" target="Sh8WYW3R7UGOPEOma0MA-107" source="Sh8WYW3R7UGOPEOma0MA-57" parent="Sh8WYW3R7UGOPEOma0MA-6">
          <mxGeometry relative="1" as="geometry">
            <mxPoint x="-103526.25" y="500" as="sourcePoint" />
          </mxGeometry>
        </mxCell>
        <mxCell id="Sh8WYW3R7UGOPEOma0MA-107" value=")((()" style="whiteSpace=wrap;html=1;" vertex="1" parent="Sh8WYW3R7UGOPEOma0MA-6">
          <mxGeometry x="4850" y="490" width="100" height="40" as="geometry" />
        </mxCell>
        <mxCell id="Sh8WYW3R7UGOPEOma0MA-108" value="" style="edgeStyle=elbowEdgeStyle;elbow=vertical;html=1;rounded=1;curved=0;sourcePerimeterSpacing=0;targetPerimeterSpacing=0;startSize=6;endSize=6;" edge="1" target="Sh8WYW3R7UGOPEOma0MA-109" source="Sh8WYW3R7UGOPEOma0MA-59" parent="Sh8WYW3R7UGOPEOma0MA-6">
          <mxGeometry relative="1" as="geometry">
            <mxPoint x="-101468.25" y="410" as="sourcePoint" />
          </mxGeometry>
        </mxCell>
        <mxCell id="Sh8WYW3R7UGOPEOma0MA-109" value=")(()(" style="whiteSpace=wrap;html=1;" vertex="1" parent="Sh8WYW3R7UGOPEOma0MA-6">
          <mxGeometry x="5130" y="490" width="100" height="40" as="geometry" />
        </mxCell>
        <mxCell id="Sh8WYW3R7UGOPEOma0MA-110" value="" style="edgeStyle=elbowEdgeStyle;elbow=vertical;html=1;rounded=1;curved=0;sourcePerimeterSpacing=0;targetPerimeterSpacing=0;startSize=6;endSize=6;" edge="1" target="Sh8WYW3R7UGOPEOma0MA-111" source="Sh8WYW3R7UGOPEOma0MA-59" parent="Sh8WYW3R7UGOPEOma0MA-6">
          <mxGeometry relative="1" as="geometry">
            <mxPoint x="-101362.375" y="500" as="sourcePoint" />
          </mxGeometry>
        </mxCell>
        <mxCell id="Sh8WYW3R7UGOPEOma0MA-111" value=")(())" style="whiteSpace=wrap;html=1;" vertex="1" parent="Sh8WYW3R7UGOPEOma0MA-6">
          <mxGeometry x="5410" y="490" width="100" height="40" as="geometry" />
        </mxCell>
        <mxCell id="Sh8WYW3R7UGOPEOma0MA-112" value="" style="edgeStyle=elbowEdgeStyle;elbow=vertical;html=1;rounded=1;curved=0;sourcePerimeterSpacing=0;targetPerimeterSpacing=0;startSize=6;endSize=6;" edge="1" target="Sh8WYW3R7UGOPEOma0MA-113" source="Sh8WYW3R7UGOPEOma0MA-61" parent="Sh8WYW3R7UGOPEOma0MA-6">
          <mxGeometry relative="1" as="geometry">
            <mxPoint x="-99070.75" y="410" as="sourcePoint" />
          </mxGeometry>
        </mxCell>
        <mxCell id="Sh8WYW3R7UGOPEOma0MA-113" value=")()((" style="whiteSpace=wrap;html=1;" vertex="1" parent="Sh8WYW3R7UGOPEOma0MA-6">
          <mxGeometry x="5690" y="490" width="100" height="40" as="geometry" />
        </mxCell>
        <mxCell id="Sh8WYW3R7UGOPEOma0MA-114" value="" style="edgeStyle=elbowEdgeStyle;elbow=vertical;html=1;rounded=1;curved=0;sourcePerimeterSpacing=0;targetPerimeterSpacing=0;startSize=6;endSize=6;" edge="1" target="Sh8WYW3R7UGOPEOma0MA-115" source="Sh8WYW3R7UGOPEOma0MA-61" parent="Sh8WYW3R7UGOPEOma0MA-6">
          <mxGeometry relative="1" as="geometry">
            <mxPoint x="-99132" y="500" as="sourcePoint" />
          </mxGeometry>
        </mxCell>
        <mxCell id="Sh8WYW3R7UGOPEOma0MA-115" value=")()()" style="whiteSpace=wrap;html=1;" vertex="1" parent="Sh8WYW3R7UGOPEOma0MA-6">
          <mxGeometry x="5970" y="490" width="100" height="40" as="geometry" />
        </mxCell>
        <mxCell id="Sh8WYW3R7UGOPEOma0MA-116" value="" style="edgeStyle=elbowEdgeStyle;elbow=vertical;html=1;rounded=1;curved=0;sourcePerimeterSpacing=0;targetPerimeterSpacing=0;startSize=6;endSize=6;" edge="1" target="Sh8WYW3R7UGOPEOma0MA-117" source="Sh8WYW3R7UGOPEOma0MA-63" parent="Sh8WYW3R7UGOPEOma0MA-6">
          <mxGeometry relative="1" as="geometry">
            <mxPoint x="-96951.5" y="410" as="sourcePoint" />
          </mxGeometry>
        </mxCell>
        <mxCell id="Sh8WYW3R7UGOPEOma0MA-117" value=")())(" style="whiteSpace=wrap;html=1;" vertex="1" parent="Sh8WYW3R7UGOPEOma0MA-6">
          <mxGeometry x="6250" y="490" width="100" height="40" as="geometry" />
        </mxCell>
        <mxCell id="Sh8WYW3R7UGOPEOma0MA-118" value="" style="edgeStyle=elbowEdgeStyle;elbow=vertical;html=1;rounded=1;curved=0;sourcePerimeterSpacing=0;targetPerimeterSpacing=0;startSize=6;endSize=6;" edge="1" target="Sh8WYW3R7UGOPEOma0MA-119" source="Sh8WYW3R7UGOPEOma0MA-63" parent="Sh8WYW3R7UGOPEOma0MA-6">
          <mxGeometry relative="1" as="geometry">
            <mxPoint x="-96843.875" y="500" as="sourcePoint" />
          </mxGeometry>
        </mxCell>
        <mxCell id="Sh8WYW3R7UGOPEOma0MA-119" value=")()))" style="whiteSpace=wrap;html=1;" vertex="1" parent="Sh8WYW3R7UGOPEOma0MA-6">
          <mxGeometry x="6530" y="490" width="100" height="40" as="geometry" />
        </mxCell>
        <mxCell id="Sh8WYW3R7UGOPEOma0MA-120" value="" style="edgeStyle=elbowEdgeStyle;elbow=vertical;html=1;rounded=1;curved=0;sourcePerimeterSpacing=0;targetPerimeterSpacing=0;startSize=6;endSize=6;" edge="1" target="Sh8WYW3R7UGOPEOma0MA-121" source="Sh8WYW3R7UGOPEOma0MA-65" parent="Sh8WYW3R7UGOPEOma0MA-6">
          <mxGeometry relative="1" as="geometry">
            <mxPoint x="-94447.25" y="410" as="sourcePoint" />
          </mxGeometry>
        </mxCell>
        <mxCell id="Sh8WYW3R7UGOPEOma0MA-121" value="))(((" style="whiteSpace=wrap;html=1;" vertex="1" parent="Sh8WYW3R7UGOPEOma0MA-6">
          <mxGeometry x="6810" y="490" width="100" height="40" as="geometry" />
        </mxCell>
        <mxCell id="Sh8WYW3R7UGOPEOma0MA-122" value="" style="edgeStyle=elbowEdgeStyle;elbow=vertical;html=1;rounded=1;curved=0;sourcePerimeterSpacing=0;targetPerimeterSpacing=0;startSize=6;endSize=6;" edge="1" target="Sh8WYW3R7UGOPEOma0MA-123" source="Sh8WYW3R7UGOPEOma0MA-65" parent="Sh8WYW3R7UGOPEOma0MA-6">
          <mxGeometry relative="1" as="geometry">
            <mxPoint x="-94506.75" y="500" as="sourcePoint" />
          </mxGeometry>
        </mxCell>
        <mxCell id="Sh8WYW3R7UGOPEOma0MA-123" value="))(()" style="whiteSpace=wrap;html=1;" vertex="1" parent="Sh8WYW3R7UGOPEOma0MA-6">
          <mxGeometry x="7090" y="490" width="100" height="40" as="geometry" />
        </mxCell>
        <mxCell id="Sh8WYW3R7UGOPEOma0MA-124" value="" style="edgeStyle=elbowEdgeStyle;elbow=vertical;html=1;rounded=1;curved=0;sourcePerimeterSpacing=0;targetPerimeterSpacing=0;startSize=6;endSize=6;" edge="1" target="Sh8WYW3R7UGOPEOma0MA-125" source="Sh8WYW3R7UGOPEOma0MA-67" parent="Sh8WYW3R7UGOPEOma0MA-6">
          <mxGeometry relative="1" as="geometry">
            <mxPoint x="-92238.75" y="410" as="sourcePoint" />
          </mxGeometry>
        </mxCell>
        <mxCell id="Sh8WYW3R7UGOPEOma0MA-125" value="))()(" style="whiteSpace=wrap;html=1;" vertex="1" parent="Sh8WYW3R7UGOPEOma0MA-6">
          <mxGeometry x="7370" y="490" width="100" height="40" as="geometry" />
        </mxCell>
        <mxCell id="Sh8WYW3R7UGOPEOma0MA-126" value="" style="edgeStyle=elbowEdgeStyle;elbow=vertical;html=1;rounded=1;curved=0;sourcePerimeterSpacing=0;targetPerimeterSpacing=0;startSize=6;endSize=6;" edge="1" target="Sh8WYW3R7UGOPEOma0MA-127" source="Sh8WYW3R7UGOPEOma0MA-67" parent="Sh8WYW3R7UGOPEOma0MA-6">
          <mxGeometry relative="1" as="geometry">
            <mxPoint x="-92129.375" y="500" as="sourcePoint" />
          </mxGeometry>
        </mxCell>
        <mxCell id="Sh8WYW3R7UGOPEOma0MA-127" value="))())" style="whiteSpace=wrap;html=1;" vertex="1" parent="Sh8WYW3R7UGOPEOma0MA-6">
          <mxGeometry x="7650" y="490" width="100" height="40" as="geometry" />
        </mxCell>
        <mxCell id="Sh8WYW3R7UGOPEOma0MA-128" value="" style="edgeStyle=elbowEdgeStyle;elbow=vertical;html=1;rounded=1;curved=0;sourcePerimeterSpacing=0;targetPerimeterSpacing=0;startSize=6;endSize=6;" edge="1" target="Sh8WYW3R7UGOPEOma0MA-129" source="Sh8WYW3R7UGOPEOma0MA-69" parent="Sh8WYW3R7UGOPEOma0MA-6">
          <mxGeometry relative="1" as="geometry">
            <mxPoint x="-89662.75" y="410" as="sourcePoint" />
          </mxGeometry>
        </mxCell>
        <mxCell id="Sh8WYW3R7UGOPEOma0MA-129" value=")))((" style="whiteSpace=wrap;html=1;" vertex="1" parent="Sh8WYW3R7UGOPEOma0MA-6">
          <mxGeometry x="7930" y="490" width="100" height="40" as="geometry" />
        </mxCell>
        <mxCell id="Sh8WYW3R7UGOPEOma0MA-130" value="" style="edgeStyle=elbowEdgeStyle;elbow=vertical;html=1;rounded=1;curved=0;sourcePerimeterSpacing=0;targetPerimeterSpacing=0;startSize=6;endSize=6;" edge="1" target="Sh8WYW3R7UGOPEOma0MA-131" source="Sh8WYW3R7UGOPEOma0MA-69" parent="Sh8WYW3R7UGOPEOma0MA-6">
          <mxGeometry relative="1" as="geometry">
            <mxPoint x="-89720.5" y="500" as="sourcePoint" />
          </mxGeometry>
        </mxCell>
        <mxCell id="Sh8WYW3R7UGOPEOma0MA-131" value=")))()" style="whiteSpace=wrap;html=1;" vertex="1" parent="Sh8WYW3R7UGOPEOma0MA-6">
          <mxGeometry x="8210" y="490" width="100" height="40" as="geometry" />
        </mxCell>
        <mxCell id="Sh8WYW3R7UGOPEOma0MA-132" value="" style="edgeStyle=elbowEdgeStyle;elbow=vertical;html=1;rounded=1;curved=0;sourcePerimeterSpacing=0;targetPerimeterSpacing=0;startSize=6;endSize=6;" edge="1" target="Sh8WYW3R7UGOPEOma0MA-133" source="Sh8WYW3R7UGOPEOma0MA-71" parent="Sh8WYW3R7UGOPEOma0MA-6">
          <mxGeometry relative="1" as="geometry">
            <mxPoint x="-89564.75" y="410" as="sourcePoint" />
          </mxGeometry>
        </mxCell>
        <mxCell id="Sh8WYW3R7UGOPEOma0MA-133" value="))))(" style="whiteSpace=wrap;html=1;" vertex="1" parent="Sh8WYW3R7UGOPEOma0MA-6">
          <mxGeometry x="8490" y="490" width="100" height="40" as="geometry" />
        </mxCell>
        <mxCell id="Sh8WYW3R7UGOPEOma0MA-134" value="" style="edgeStyle=elbowEdgeStyle;elbow=vertical;html=1;rounded=1;curved=0;sourcePerimeterSpacing=0;targetPerimeterSpacing=0;startSize=6;endSize=6;" edge="1" target="Sh8WYW3R7UGOPEOma0MA-135" source="Sh8WYW3R7UGOPEOma0MA-71" parent="Sh8WYW3R7UGOPEOma0MA-6">
          <mxGeometry relative="1" as="geometry">
            <mxPoint x="-89453.625" y="500" as="sourcePoint" />
          </mxGeometry>
        </mxCell>
        <mxCell id="Sh8WYW3R7UGOPEOma0MA-135" value=")))))" style="whiteSpace=wrap;html=1;" vertex="1" parent="Sh8WYW3R7UGOPEOma0MA-6">
          <mxGeometry x="8770" y="490" width="100" height="40" as="geometry" />
        </mxCell>
        <mxCell id="Sh8WYW3R7UGOPEOma0MA-138" value="" style="edgeStyle=elbowEdgeStyle;elbow=vertical;html=1;rounded=1;curved=0;sourcePerimeterSpacing=0;targetPerimeterSpacing=0;startSize=6;endSize=6;" edge="1" target="Sh8WYW3R7UGOPEOma0MA-139" source="Sh8WYW3R7UGOPEOma0MA-73" parent="Sh8WYW3R7UGOPEOma0MA-6">
          <mxGeometry relative="1" as="geometry">
            <mxPoint x="-93588" y="500" as="sourcePoint" />
          </mxGeometry>
        </mxCell>
        <mxCell id="Sh8WYW3R7UGOPEOma0MA-139" value="((((((" style="whiteSpace=wrap;html=1;" vertex="1" parent="Sh8WYW3R7UGOPEOma0MA-6">
          <mxGeometry x="20" y="580" width="100" height="40" as="geometry" />
        </mxCell>
        <mxCell id="Sh8WYW3R7UGOPEOma0MA-140" value="" style="edgeStyle=elbowEdgeStyle;elbow=vertical;html=1;rounded=1;curved=0;sourcePerimeterSpacing=0;targetPerimeterSpacing=0;startSize=6;endSize=6;" edge="1" target="Sh8WYW3R7UGOPEOma0MA-141" source="Sh8WYW3R7UGOPEOma0MA-73" parent="Sh8WYW3R7UGOPEOma0MA-6">
          <mxGeometry relative="1" as="geometry">
            <mxPoint x="-93658" y="590" as="sourcePoint" />
          </mxGeometry>
        </mxCell>
        <mxCell id="Sh8WYW3R7UGOPEOma0MA-141" value="((((()" style="whiteSpace=wrap;html=1;" vertex="1" parent="Sh8WYW3R7UGOPEOma0MA-6">
          <mxGeometry x="160" y="580" width="100" height="40" as="geometry" />
        </mxCell>
        <mxCell id="Sh8WYW3R7UGOPEOma0MA-142" value="" style="edgeStyle=elbowEdgeStyle;elbow=vertical;html=1;rounded=1;curved=0;sourcePerimeterSpacing=0;targetPerimeterSpacing=0;startSize=6;endSize=6;" edge="1" target="Sh8WYW3R7UGOPEOma0MA-143" source="Sh8WYW3R7UGOPEOma0MA-75" parent="Sh8WYW3R7UGOPEOma0MA-6">
          <mxGeometry relative="1" as="geometry">
            <mxPoint x="-91320" y="500" as="sourcePoint" />
          </mxGeometry>
        </mxCell>
        <mxCell id="Sh8WYW3R7UGOPEOma0MA-143" value="(((()(" style="whiteSpace=wrap;html=1;" vertex="1" parent="Sh8WYW3R7UGOPEOma0MA-6">
          <mxGeometry x="300" y="580" width="100" height="40" as="geometry" />
        </mxCell>
        <mxCell id="Sh8WYW3R7UGOPEOma0MA-144" value="" style="edgeStyle=elbowEdgeStyle;elbow=vertical;html=1;rounded=1;curved=0;sourcePerimeterSpacing=0;targetPerimeterSpacing=0;startSize=6;endSize=6;" edge="1" target="Sh8WYW3R7UGOPEOma0MA-145" source="Sh8WYW3R7UGOPEOma0MA-75" parent="Sh8WYW3R7UGOPEOma0MA-6">
          <mxGeometry relative="1" as="geometry">
            <mxPoint x="-91221.5625" y="590" as="sourcePoint" />
          </mxGeometry>
        </mxCell>
        <mxCell id="Sh8WYW3R7UGOPEOma0MA-145" value="(((())" style="whiteSpace=wrap;html=1;" vertex="1" parent="Sh8WYW3R7UGOPEOma0MA-6">
          <mxGeometry x="440" y="580" width="100" height="40" as="geometry" />
        </mxCell>
        <mxCell id="Sh8WYW3R7UGOPEOma0MA-146" value="" style="edgeStyle=elbowEdgeStyle;elbow=vertical;html=1;rounded=1;curved=0;sourcePerimeterSpacing=0;targetPerimeterSpacing=0;startSize=6;endSize=6;" edge="1" target="Sh8WYW3R7UGOPEOma0MA-147" source="Sh8WYW3R7UGOPEOma0MA-77" parent="Sh8WYW3R7UGOPEOma0MA-6">
          <mxGeometry relative="1" as="geometry">
            <mxPoint x="-88577.75" y="500" as="sourcePoint" />
          </mxGeometry>
        </mxCell>
        <mxCell id="Sh8WYW3R7UGOPEOma0MA-147" value="((()((" style="whiteSpace=wrap;html=1;" vertex="1" parent="Sh8WYW3R7UGOPEOma0MA-6">
          <mxGeometry x="580" y="580" width="100" height="40" as="geometry" />
        </mxCell>
        <mxCell id="Sh8WYW3R7UGOPEOma0MA-148" value="" style="edgeStyle=elbowEdgeStyle;elbow=vertical;html=1;rounded=1;curved=0;sourcePerimeterSpacing=0;targetPerimeterSpacing=0;startSize=6;endSize=6;" edge="1" target="Sh8WYW3R7UGOPEOma0MA-149" source="Sh8WYW3R7UGOPEOma0MA-77" parent="Sh8WYW3R7UGOPEOma0MA-6">
          <mxGeometry relative="1" as="geometry">
            <mxPoint x="-88646.875" y="590" as="sourcePoint" />
          </mxGeometry>
        </mxCell>
        <mxCell id="Sh8WYW3R7UGOPEOma0MA-149" value="((()()" style="whiteSpace=wrap;html=1;" vertex="1" parent="Sh8WYW3R7UGOPEOma0MA-6">
          <mxGeometry x="720" y="580" width="100" height="40" as="geometry" />
        </mxCell>
        <mxCell id="Sh8WYW3R7UGOPEOma0MA-150" value="" style="edgeStyle=elbowEdgeStyle;elbow=vertical;html=1;rounded=1;curved=0;sourcePerimeterSpacing=0;targetPerimeterSpacing=0;startSize=6;endSize=6;" edge="1" target="Sh8WYW3R7UGOPEOma0MA-151" source="Sh8WYW3R7UGOPEOma0MA-79" parent="Sh8WYW3R7UGOPEOma0MA-6">
          <mxGeometry relative="1" as="geometry">
            <mxPoint x="-86037.625" y="500" as="sourcePoint" />
          </mxGeometry>
        </mxCell>
        <mxCell id="Sh8WYW3R7UGOPEOma0MA-151" value="((())(" style="whiteSpace=wrap;html=1;" vertex="1" parent="Sh8WYW3R7UGOPEOma0MA-6">
          <mxGeometry x="860" y="580" width="100" height="40" as="geometry" />
        </mxCell>
        <mxCell id="Sh8WYW3R7UGOPEOma0MA-152" value="" style="edgeStyle=elbowEdgeStyle;elbow=vertical;html=1;rounded=1;curved=0;sourcePerimeterSpacing=0;targetPerimeterSpacing=0;startSize=6;endSize=6;" edge="1" target="Sh8WYW3R7UGOPEOma0MA-153" source="Sh8WYW3R7UGOPEOma0MA-79" parent="Sh8WYW3R7UGOPEOma0MA-6">
          <mxGeometry relative="1" as="geometry">
            <mxPoint x="-85938.3125" y="590" as="sourcePoint" />
          </mxGeometry>
        </mxCell>
        <mxCell id="Sh8WYW3R7UGOPEOma0MA-153" value="((()))" style="whiteSpace=wrap;html=1;fillColor=#d5e8d4;strokeColor=#82b366;" vertex="1" parent="Sh8WYW3R7UGOPEOma0MA-6">
          <mxGeometry x="1000" y="580" width="100" height="40" as="geometry" />
        </mxCell>
        <mxCell id="Sh8WYW3R7UGOPEOma0MA-154" value="" style="edgeStyle=elbowEdgeStyle;elbow=vertical;html=1;rounded=1;curved=0;sourcePerimeterSpacing=0;targetPerimeterSpacing=0;startSize=6;endSize=6;" edge="1" target="Sh8WYW3R7UGOPEOma0MA-155" source="Sh8WYW3R7UGOPEOma0MA-81" parent="Sh8WYW3R7UGOPEOma0MA-6">
          <mxGeometry relative="1" as="geometry">
            <mxPoint x="-83032" y="500" as="sourcePoint" />
          </mxGeometry>
        </mxCell>
        <mxCell id="Sh8WYW3R7UGOPEOma0MA-155" value="(()(((" style="whiteSpace=wrap;html=1;" vertex="1" parent="Sh8WYW3R7UGOPEOma0MA-6">
          <mxGeometry x="1140" y="580" width="100" height="40" as="geometry" />
        </mxCell>
        <mxCell id="Sh8WYW3R7UGOPEOma0MA-156" value="" style="edgeStyle=elbowEdgeStyle;elbow=vertical;html=1;rounded=1;curved=0;sourcePerimeterSpacing=0;targetPerimeterSpacing=0;startSize=6;endSize=6;" edge="1" target="Sh8WYW3R7UGOPEOma0MA-157" source="Sh8WYW3R7UGOPEOma0MA-81" parent="Sh8WYW3R7UGOPEOma0MA-6">
          <mxGeometry relative="1" as="geometry">
            <mxPoint x="-83100.25" y="590" as="sourcePoint" />
          </mxGeometry>
        </mxCell>
        <mxCell id="Sh8WYW3R7UGOPEOma0MA-157" value="(()(()" style="whiteSpace=wrap;html=1;" vertex="1" parent="Sh8WYW3R7UGOPEOma0MA-6">
          <mxGeometry x="1280" y="580" width="100" height="40" as="geometry" />
        </mxCell>
        <mxCell id="Sh8WYW3R7UGOPEOma0MA-158" value="" style="edgeStyle=elbowEdgeStyle;elbow=vertical;html=1;rounded=1;curved=0;sourcePerimeterSpacing=0;targetPerimeterSpacing=0;startSize=6;endSize=6;" edge="1" target="Sh8WYW3R7UGOPEOma0MA-159" source="Sh8WYW3R7UGOPEOma0MA-83" parent="Sh8WYW3R7UGOPEOma0MA-6">
          <mxGeometry relative="1" as="geometry">
            <mxPoint x="-80237.25" y="500" as="sourcePoint" />
          </mxGeometry>
        </mxCell>
        <mxCell id="Sh8WYW3R7UGOPEOma0MA-159" value="(()()(" style="whiteSpace=wrap;html=1;" vertex="1" parent="Sh8WYW3R7UGOPEOma0MA-6">
          <mxGeometry x="1420" y="580" width="100" height="40" as="geometry" />
        </mxCell>
        <mxCell id="Sh8WYW3R7UGOPEOma0MA-160" value="" style="edgeStyle=elbowEdgeStyle;elbow=vertical;html=1;rounded=1;curved=0;sourcePerimeterSpacing=0;targetPerimeterSpacing=0;startSize=6;endSize=6;" edge="1" target="Sh8WYW3R7UGOPEOma0MA-161" source="Sh8WYW3R7UGOPEOma0MA-83" parent="Sh8WYW3R7UGOPEOma0MA-6">
          <mxGeometry relative="1" as="geometry">
            <mxPoint x="-80137.0625" y="590" as="sourcePoint" />
          </mxGeometry>
        </mxCell>
        <mxCell id="Sh8WYW3R7UGOPEOma0MA-161" value="(()())" style="whiteSpace=wrap;html=1;fillColor=#d5e8d4;strokeColor=#82b366;" vertex="1" parent="Sh8WYW3R7UGOPEOma0MA-6">
          <mxGeometry x="1560" y="580" width="100" height="40" as="geometry" />
        </mxCell>
        <mxCell id="Sh8WYW3R7UGOPEOma0MA-162" value="" style="edgeStyle=elbowEdgeStyle;elbow=vertical;html=1;rounded=1;curved=0;sourcePerimeterSpacing=0;targetPerimeterSpacing=0;startSize=6;endSize=6;" edge="1" target="Sh8WYW3R7UGOPEOma0MA-163" source="Sh8WYW3R7UGOPEOma0MA-85" parent="Sh8WYW3R7UGOPEOma0MA-6">
          <mxGeometry relative="1" as="geometry">
            <mxPoint x="-76985.75" y="500" as="sourcePoint" />
          </mxGeometry>
        </mxCell>
        <mxCell id="Sh8WYW3R7UGOPEOma0MA-163" value="(())((" style="whiteSpace=wrap;html=1;" vertex="1" parent="Sh8WYW3R7UGOPEOma0MA-6">
          <mxGeometry x="1700" y="580" width="100" height="40" as="geometry" />
        </mxCell>
        <mxCell id="Sh8WYW3R7UGOPEOma0MA-164" value="" style="edgeStyle=elbowEdgeStyle;elbow=vertical;html=1;rounded=1;curved=0;sourcePerimeterSpacing=0;targetPerimeterSpacing=0;startSize=6;endSize=6;" edge="1" target="Sh8WYW3R7UGOPEOma0MA-165" source="Sh8WYW3R7UGOPEOma0MA-85" parent="Sh8WYW3R7UGOPEOma0MA-6">
          <mxGeometry relative="1" as="geometry">
            <mxPoint x="-77053.125" y="590" as="sourcePoint" />
          </mxGeometry>
        </mxCell>
        <mxCell id="Sh8WYW3R7UGOPEOma0MA-165" value="(())()" style="whiteSpace=wrap;html=1;fillColor=#d5e8d4;strokeColor=#82b366;" vertex="1" parent="Sh8WYW3R7UGOPEOma0MA-6">
          <mxGeometry x="1840" y="580" width="100" height="40" as="geometry" />
        </mxCell>
        <mxCell id="Sh8WYW3R7UGOPEOma0MA-166" value="" style="edgeStyle=elbowEdgeStyle;elbow=vertical;html=1;rounded=1;curved=0;sourcePerimeterSpacing=0;targetPerimeterSpacing=0;startSize=6;endSize=6;" edge="1" target="Sh8WYW3R7UGOPEOma0MA-167" source="Sh8WYW3R7UGOPEOma0MA-87" parent="Sh8WYW3R7UGOPEOma0MA-6">
          <mxGeometry relative="1" as="geometry">
            <mxPoint x="-73953.875" y="500" as="sourcePoint" />
          </mxGeometry>
        </mxCell>
        <mxCell id="Sh8WYW3R7UGOPEOma0MA-167" value="(()))(" style="whiteSpace=wrap;html=1;" vertex="1" parent="Sh8WYW3R7UGOPEOma0MA-6">
          <mxGeometry x="1980" y="580" width="100" height="40" as="geometry" />
        </mxCell>
        <mxCell id="Sh8WYW3R7UGOPEOma0MA-168" value="" style="edgeStyle=elbowEdgeStyle;elbow=vertical;html=1;rounded=1;curved=0;sourcePerimeterSpacing=0;targetPerimeterSpacing=0;startSize=6;endSize=6;" edge="1" target="Sh8WYW3R7UGOPEOma0MA-169" source="Sh8WYW3R7UGOPEOma0MA-87" parent="Sh8WYW3R7UGOPEOma0MA-6">
          <mxGeometry relative="1" as="geometry">
            <mxPoint x="-73852.8125" y="590" as="sourcePoint" />
          </mxGeometry>
        </mxCell>
        <mxCell id="Sh8WYW3R7UGOPEOma0MA-169" value="(())))" style="whiteSpace=wrap;html=1;" vertex="1" parent="Sh8WYW3R7UGOPEOma0MA-6">
          <mxGeometry x="2120" y="580" width="100" height="40" as="geometry" />
        </mxCell>
        <mxCell id="Sh8WYW3R7UGOPEOma0MA-170" value="" style="edgeStyle=elbowEdgeStyle;elbow=vertical;html=1;rounded=1;curved=0;sourcePerimeterSpacing=0;targetPerimeterSpacing=0;startSize=6;endSize=6;" edge="1" target="Sh8WYW3R7UGOPEOma0MA-171" source="Sh8WYW3R7UGOPEOma0MA-89" parent="Sh8WYW3R7UGOPEOma0MA-6">
          <mxGeometry relative="1" as="geometry">
            <mxPoint x="-70474" y="500" as="sourcePoint" />
          </mxGeometry>
        </mxCell>
        <mxCell id="Sh8WYW3R7UGOPEOma0MA-171" value="()((((" style="whiteSpace=wrap;html=1;" vertex="1" parent="Sh8WYW3R7UGOPEOma0MA-6">
          <mxGeometry x="2260" y="580" width="100" height="40" as="geometry" />
        </mxCell>
        <mxCell id="Sh8WYW3R7UGOPEOma0MA-172" value="" style="edgeStyle=elbowEdgeStyle;elbow=vertical;html=1;rounded=1;curved=0;sourcePerimeterSpacing=0;targetPerimeterSpacing=0;startSize=6;endSize=6;" edge="1" target="Sh8WYW3R7UGOPEOma0MA-173" source="Sh8WYW3R7UGOPEOma0MA-89" parent="Sh8WYW3R7UGOPEOma0MA-6">
          <mxGeometry relative="1" as="geometry">
            <mxPoint x="-70540.5" y="590" as="sourcePoint" />
          </mxGeometry>
        </mxCell>
        <mxCell id="Sh8WYW3R7UGOPEOma0MA-173" value="()((()" style="whiteSpace=wrap;html=1;" vertex="1" parent="Sh8WYW3R7UGOPEOma0MA-6">
          <mxGeometry x="2400" y="580" width="100" height="40" as="geometry" />
        </mxCell>
        <mxCell id="Sh8WYW3R7UGOPEOma0MA-174" value="" style="edgeStyle=elbowEdgeStyle;elbow=vertical;html=1;rounded=1;curved=0;sourcePerimeterSpacing=0;targetPerimeterSpacing=0;startSize=6;endSize=6;" edge="1" target="Sh8WYW3R7UGOPEOma0MA-175" source="Sh8WYW3R7UGOPEOma0MA-91" parent="Sh8WYW3R7UGOPEOma0MA-6">
          <mxGeometry relative="1" as="geometry">
            <mxPoint x="-67222.5" y="500" as="sourcePoint" />
          </mxGeometry>
        </mxCell>
        <mxCell id="Sh8WYW3R7UGOPEOma0MA-175" value="()(()(" style="whiteSpace=wrap;html=1;" vertex="1" parent="Sh8WYW3R7UGOPEOma0MA-6">
          <mxGeometry x="2540" y="580" width="100" height="40" as="geometry" />
        </mxCell>
        <mxCell id="Sh8WYW3R7UGOPEOma0MA-176" value="" style="edgeStyle=elbowEdgeStyle;elbow=vertical;html=1;rounded=1;curved=0;sourcePerimeterSpacing=0;targetPerimeterSpacing=0;startSize=6;endSize=6;" edge="1" target="Sh8WYW3R7UGOPEOma0MA-177" source="Sh8WYW3R7UGOPEOma0MA-91" parent="Sh8WYW3R7UGOPEOma0MA-6">
          <mxGeometry relative="1" as="geometry">
            <mxPoint x="-67120.5625" y="590" as="sourcePoint" />
          </mxGeometry>
        </mxCell>
        <mxCell id="Sh8WYW3R7UGOPEOma0MA-177" value="()(())" style="whiteSpace=wrap;html=1;fillColor=#d5e8d4;strokeColor=#82b366;" vertex="1" parent="Sh8WYW3R7UGOPEOma0MA-6">
          <mxGeometry x="2680" y="580" width="100" height="40" as="geometry" />
        </mxCell>
        <mxCell id="Sh8WYW3R7UGOPEOma0MA-178" value="" style="edgeStyle=elbowEdgeStyle;elbow=vertical;html=1;rounded=1;curved=0;sourcePerimeterSpacing=0;targetPerimeterSpacing=0;startSize=6;endSize=6;" edge="1" target="Sh8WYW3R7UGOPEOma0MA-179" source="Sh8WYW3R7UGOPEOma0MA-93" parent="Sh8WYW3R7UGOPEOma0MA-6">
          <mxGeometry relative="1" as="geometry">
            <mxPoint x="-63531.75" y="500" as="sourcePoint" />
          </mxGeometry>
        </mxCell>
        <mxCell id="Sh8WYW3R7UGOPEOma0MA-179" value="()()((" style="whiteSpace=wrap;html=1;" vertex="1" parent="Sh8WYW3R7UGOPEOma0MA-6">
          <mxGeometry x="2820" y="580" width="100" height="40" as="geometry" />
        </mxCell>
        <mxCell id="Sh8WYW3R7UGOPEOma0MA-180" value="" style="edgeStyle=elbowEdgeStyle;elbow=vertical;html=1;rounded=1;curved=0;sourcePerimeterSpacing=0;targetPerimeterSpacing=0;startSize=6;endSize=6;" edge="1" target="Sh8WYW3R7UGOPEOma0MA-181" source="Sh8WYW3R7UGOPEOma0MA-93" parent="Sh8WYW3R7UGOPEOma0MA-6">
          <mxGeometry relative="1" as="geometry">
            <mxPoint x="-63597.375" y="590" as="sourcePoint" />
          </mxGeometry>
        </mxCell>
        <mxCell id="Sh8WYW3R7UGOPEOma0MA-181" value="()()()" style="whiteSpace=wrap;html=1;fillColor=#d5e8d4;strokeColor=#82b366;" vertex="1" parent="Sh8WYW3R7UGOPEOma0MA-6">
          <mxGeometry x="2960" y="580" width="100" height="40" as="geometry" />
        </mxCell>
        <mxCell id="Sh8WYW3R7UGOPEOma0MA-182" value="" style="edgeStyle=elbowEdgeStyle;elbow=vertical;html=1;rounded=1;curved=0;sourcePerimeterSpacing=0;targetPerimeterSpacing=0;startSize=6;endSize=6;" edge="1" target="Sh8WYW3R7UGOPEOma0MA-183" source="Sh8WYW3R7UGOPEOma0MA-95" parent="Sh8WYW3R7UGOPEOma0MA-6">
          <mxGeometry relative="1" as="geometry">
            <mxPoint x="-60078.125" y="500" as="sourcePoint" />
          </mxGeometry>
        </mxCell>
        <mxCell id="Sh8WYW3R7UGOPEOma0MA-183" value="()())(" style="whiteSpace=wrap;html=1;" vertex="1" parent="Sh8WYW3R7UGOPEOma0MA-6">
          <mxGeometry x="3100" y="580" width="100" height="40" as="geometry" />
        </mxCell>
        <mxCell id="Sh8WYW3R7UGOPEOma0MA-184" value="" style="edgeStyle=elbowEdgeStyle;elbow=vertical;html=1;rounded=1;curved=0;sourcePerimeterSpacing=0;targetPerimeterSpacing=0;startSize=6;endSize=6;" edge="1" target="Sh8WYW3R7UGOPEOma0MA-185" source="Sh8WYW3R7UGOPEOma0MA-95" parent="Sh8WYW3R7UGOPEOma0MA-6">
          <mxGeometry relative="1" as="geometry">
            <mxPoint x="-59975.3125" y="590" as="sourcePoint" />
          </mxGeometry>
        </mxCell>
        <mxCell id="Sh8WYW3R7UGOPEOma0MA-185" value="()()))" style="whiteSpace=wrap;html=1;" vertex="1" parent="Sh8WYW3R7UGOPEOma0MA-6">
          <mxGeometry x="3240" y="580" width="100" height="40" as="geometry" />
        </mxCell>
        <mxCell id="Sh8WYW3R7UGOPEOma0MA-186" value="" style="edgeStyle=elbowEdgeStyle;elbow=vertical;html=1;rounded=1;curved=0;sourcePerimeterSpacing=0;targetPerimeterSpacing=0;startSize=6;endSize=6;" edge="1" target="Sh8WYW3R7UGOPEOma0MA-187" source="Sh8WYW3R7UGOPEOma0MA-97" parent="Sh8WYW3R7UGOPEOma0MA-6">
          <mxGeometry relative="1" as="geometry">
            <mxPoint x="-56194" y="500" as="sourcePoint" />
          </mxGeometry>
        </mxCell>
        <mxCell id="Sh8WYW3R7UGOPEOma0MA-187" value="())(((" style="whiteSpace=wrap;html=1;" vertex="1" parent="Sh8WYW3R7UGOPEOma0MA-6">
          <mxGeometry x="3380" y="580" width="100" height="40" as="geometry" />
        </mxCell>
        <mxCell id="Sh8WYW3R7UGOPEOma0MA-188" value="" style="edgeStyle=elbowEdgeStyle;elbow=vertical;html=1;rounded=1;curved=0;sourcePerimeterSpacing=0;targetPerimeterSpacing=0;startSize=6;endSize=6;" edge="1" target="Sh8WYW3R7UGOPEOma0MA-189" source="Sh8WYW3R7UGOPEOma0MA-97" parent="Sh8WYW3R7UGOPEOma0MA-6">
          <mxGeometry relative="1" as="geometry">
            <mxPoint x="-56258.75" y="590" as="sourcePoint" />
          </mxGeometry>
        </mxCell>
        <mxCell id="Sh8WYW3R7UGOPEOma0MA-189" value="())(()" style="whiteSpace=wrap;html=1;" vertex="1" parent="Sh8WYW3R7UGOPEOma0MA-6">
          <mxGeometry x="3520" y="580" width="100" height="40" as="geometry" />
        </mxCell>
        <mxCell id="Sh8WYW3R7UGOPEOma0MA-190" value="" style="edgeStyle=elbowEdgeStyle;elbow=vertical;html=1;rounded=1;curved=0;sourcePerimeterSpacing=0;targetPerimeterSpacing=0;startSize=6;endSize=6;" edge="1" target="Sh8WYW3R7UGOPEOma0MA-191" source="Sh8WYW3R7UGOPEOma0MA-99" parent="Sh8WYW3R7UGOPEOma0MA-6">
          <mxGeometry relative="1" as="geometry">
            <mxPoint x="-52555.75" y="500" as="sourcePoint" />
          </mxGeometry>
        </mxCell>
        <mxCell id="Sh8WYW3R7UGOPEOma0MA-191" value="())()(" style="whiteSpace=wrap;html=1;" vertex="1" parent="Sh8WYW3R7UGOPEOma0MA-6">
          <mxGeometry x="3660" y="580" width="100" height="40" as="geometry" />
        </mxCell>
        <mxCell id="Sh8WYW3R7UGOPEOma0MA-192" value="" style="edgeStyle=elbowEdgeStyle;elbow=vertical;html=1;rounded=1;curved=0;sourcePerimeterSpacing=0;targetPerimeterSpacing=0;startSize=6;endSize=6;" edge="1" target="Sh8WYW3R7UGOPEOma0MA-193" source="Sh8WYW3R7UGOPEOma0MA-99" parent="Sh8WYW3R7UGOPEOma0MA-6">
          <mxGeometry relative="1" as="geometry">
            <mxPoint x="-52452.0625" y="590" as="sourcePoint" />
          </mxGeometry>
        </mxCell>
        <mxCell id="Sh8WYW3R7UGOPEOma0MA-193" value="())())" style="whiteSpace=wrap;html=1;" vertex="1" parent="Sh8WYW3R7UGOPEOma0MA-6">
          <mxGeometry x="3800" y="580" width="100" height="40" as="geometry" />
        </mxCell>
        <mxCell id="Sh8WYW3R7UGOPEOma0MA-194" value="" style="edgeStyle=elbowEdgeStyle;elbow=vertical;html=1;rounded=1;curved=0;sourcePerimeterSpacing=0;targetPerimeterSpacing=0;startSize=6;endSize=6;" edge="1" target="Sh8WYW3R7UGOPEOma0MA-195" source="Sh8WYW3R7UGOPEOma0MA-101" parent="Sh8WYW3R7UGOPEOma0MA-6">
          <mxGeometry relative="1" as="geometry">
            <mxPoint x="-48495.75" y="500" as="sourcePoint" />
          </mxGeometry>
        </mxCell>
        <mxCell id="Sh8WYW3R7UGOPEOma0MA-195" value="()))((" style="whiteSpace=wrap;html=1;" vertex="1" parent="Sh8WYW3R7UGOPEOma0MA-6">
          <mxGeometry x="3940" y="580" width="100" height="40" as="geometry" />
        </mxCell>
        <mxCell id="Sh8WYW3R7UGOPEOma0MA-196" value="" style="edgeStyle=elbowEdgeStyle;elbow=vertical;html=1;rounded=1;curved=0;sourcePerimeterSpacing=0;targetPerimeterSpacing=0;startSize=6;endSize=6;" edge="1" target="Sh8WYW3R7UGOPEOma0MA-197" source="Sh8WYW3R7UGOPEOma0MA-101" parent="Sh8WYW3R7UGOPEOma0MA-6">
          <mxGeometry relative="1" as="geometry">
            <mxPoint x="-48559.625" y="590" as="sourcePoint" />
          </mxGeometry>
        </mxCell>
        <mxCell id="Sh8WYW3R7UGOPEOma0MA-197" value="()))()" style="whiteSpace=wrap;html=1;" vertex="1" parent="Sh8WYW3R7UGOPEOma0MA-6">
          <mxGeometry x="4080" y="580" width="100" height="40" as="geometry" />
        </mxCell>
        <mxCell id="Sh8WYW3R7UGOPEOma0MA-198" value="" style="edgeStyle=elbowEdgeStyle;elbow=vertical;html=1;rounded=1;curved=0;sourcePerimeterSpacing=0;targetPerimeterSpacing=0;startSize=6;endSize=6;" edge="1" target="Sh8WYW3R7UGOPEOma0MA-199" source="Sh8WYW3R7UGOPEOma0MA-103" parent="Sh8WYW3R7UGOPEOma0MA-6">
          <mxGeometry relative="1" as="geometry">
            <mxPoint x="-44690.375" y="500" as="sourcePoint" />
          </mxGeometry>
        </mxCell>
        <mxCell id="Sh8WYW3R7UGOPEOma0MA-199" value="())))(" style="whiteSpace=wrap;html=1;" vertex="1" parent="Sh8WYW3R7UGOPEOma0MA-6">
          <mxGeometry x="4220" y="580" width="100" height="40" as="geometry" />
        </mxCell>
        <mxCell id="Sh8WYW3R7UGOPEOma0MA-200" value="" style="edgeStyle=elbowEdgeStyle;elbow=vertical;html=1;rounded=1;curved=0;sourcePerimeterSpacing=0;targetPerimeterSpacing=0;startSize=6;endSize=6;" edge="1" target="Sh8WYW3R7UGOPEOma0MA-201" source="Sh8WYW3R7UGOPEOma0MA-103" parent="Sh8WYW3R7UGOPEOma0MA-6">
          <mxGeometry relative="1" as="geometry">
            <mxPoint x="-44585.8125" y="590" as="sourcePoint" />
          </mxGeometry>
        </mxCell>
        <mxCell id="Sh8WYW3R7UGOPEOma0MA-201" value="()))))" style="whiteSpace=wrap;html=1;" vertex="1" parent="Sh8WYW3R7UGOPEOma0MA-6">
          <mxGeometry x="4360" y="580" width="100" height="40" as="geometry" />
        </mxCell>
        <mxCell id="Sh8WYW3R7UGOPEOma0MA-202" value="" style="edgeStyle=elbowEdgeStyle;elbow=vertical;html=1;rounded=1;curved=0;sourcePerimeterSpacing=0;targetPerimeterSpacing=0;startSize=6;endSize=6;" edge="1" target="Sh8WYW3R7UGOPEOma0MA-203" source="Sh8WYW3R7UGOPEOma0MA-105" parent="Sh8WYW3R7UGOPEOma0MA-6">
          <mxGeometry relative="1" as="geometry">
            <mxPoint x="-40472" y="500" as="sourcePoint" />
          </mxGeometry>
        </mxCell>
        <mxCell id="Sh8WYW3R7UGOPEOma0MA-203" value=")(((((" style="whiteSpace=wrap;html=1;" vertex="1" parent="Sh8WYW3R7UGOPEOma0MA-6">
          <mxGeometry x="4500" y="580" width="100" height="40" as="geometry" />
        </mxCell>
        <mxCell id="Sh8WYW3R7UGOPEOma0MA-204" value="" style="edgeStyle=elbowEdgeStyle;elbow=vertical;html=1;rounded=1;curved=0;sourcePerimeterSpacing=0;targetPerimeterSpacing=0;startSize=6;endSize=6;" edge="1" target="Sh8WYW3R7UGOPEOma0MA-205" source="Sh8WYW3R7UGOPEOma0MA-105" parent="Sh8WYW3R7UGOPEOma0MA-6">
          <mxGeometry relative="1" as="geometry">
            <mxPoint x="-40535" y="590" as="sourcePoint" />
          </mxGeometry>
        </mxCell>
        <mxCell id="Sh8WYW3R7UGOPEOma0MA-205" value=")(((()" style="whiteSpace=wrap;html=1;" vertex="1" parent="Sh8WYW3R7UGOPEOma0MA-6">
          <mxGeometry x="4640" y="580" width="100" height="40" as="geometry" />
        </mxCell>
        <mxCell id="Sh8WYW3R7UGOPEOma0MA-206" value="" style="edgeStyle=elbowEdgeStyle;elbow=vertical;html=1;rounded=1;curved=0;sourcePerimeterSpacing=0;targetPerimeterSpacing=0;startSize=6;endSize=6;" edge="1" target="Sh8WYW3R7UGOPEOma0MA-207" source="Sh8WYW3R7UGOPEOma0MA-107" parent="Sh8WYW3R7UGOPEOma0MA-6">
          <mxGeometry relative="1" as="geometry">
            <mxPoint x="-36517" y="500" as="sourcePoint" />
          </mxGeometry>
        </mxCell>
        <mxCell id="Sh8WYW3R7UGOPEOma0MA-207" value=")((()(" style="whiteSpace=wrap;html=1;" vertex="1" parent="Sh8WYW3R7UGOPEOma0MA-6">
          <mxGeometry x="4780" y="580" width="100" height="40" as="geometry" />
        </mxCell>
        <mxCell id="Sh8WYW3R7UGOPEOma0MA-208" value="" style="edgeStyle=elbowEdgeStyle;elbow=vertical;html=1;rounded=1;curved=0;sourcePerimeterSpacing=0;targetPerimeterSpacing=0;startSize=6;endSize=6;" edge="1" target="Sh8WYW3R7UGOPEOma0MA-209" source="Sh8WYW3R7UGOPEOma0MA-107" parent="Sh8WYW3R7UGOPEOma0MA-6">
          <mxGeometry relative="1" as="geometry">
            <mxPoint x="-36411.5625" y="590" as="sourcePoint" />
          </mxGeometry>
        </mxCell>
        <mxCell id="Sh8WYW3R7UGOPEOma0MA-209" value=")((())" style="whiteSpace=wrap;html=1;" vertex="1" parent="Sh8WYW3R7UGOPEOma0MA-6">
          <mxGeometry x="4920" y="580" width="100" height="40" as="geometry" />
        </mxCell>
        <mxCell id="Sh8WYW3R7UGOPEOma0MA-210" value="" style="edgeStyle=elbowEdgeStyle;elbow=vertical;html=1;rounded=1;curved=0;sourcePerimeterSpacing=0;targetPerimeterSpacing=0;startSize=6;endSize=6;" edge="1" target="Sh8WYW3R7UGOPEOma0MA-211" source="Sh8WYW3R7UGOPEOma0MA-109" parent="Sh8WYW3R7UGOPEOma0MA-6">
          <mxGeometry relative="1" as="geometry">
            <mxPoint x="-32157.75" y="500" as="sourcePoint" />
          </mxGeometry>
        </mxCell>
        <mxCell id="Sh8WYW3R7UGOPEOma0MA-211" value=")(()((" style="whiteSpace=wrap;html=1;" vertex="1" parent="Sh8WYW3R7UGOPEOma0MA-6">
          <mxGeometry x="5060" y="580" width="100" height="40" as="geometry" />
        </mxCell>
        <mxCell id="Sh8WYW3R7UGOPEOma0MA-212" value="" style="edgeStyle=elbowEdgeStyle;elbow=vertical;html=1;rounded=1;curved=0;sourcePerimeterSpacing=0;targetPerimeterSpacing=0;startSize=6;endSize=6;" edge="1" target="Sh8WYW3R7UGOPEOma0MA-213" source="Sh8WYW3R7UGOPEOma0MA-109" parent="Sh8WYW3R7UGOPEOma0MA-6">
          <mxGeometry relative="1" as="geometry">
            <mxPoint x="-32219.875" y="590" as="sourcePoint" />
          </mxGeometry>
        </mxCell>
        <mxCell id="Sh8WYW3R7UGOPEOma0MA-213" value=")(()()" style="whiteSpace=wrap;html=1;" vertex="1" parent="Sh8WYW3R7UGOPEOma0MA-6">
          <mxGeometry x="5200" y="580" width="100" height="40" as="geometry" />
        </mxCell>
        <mxCell id="Sh8WYW3R7UGOPEOma0MA-214" value="" style="edgeStyle=elbowEdgeStyle;elbow=vertical;html=1;rounded=1;curved=0;sourcePerimeterSpacing=0;targetPerimeterSpacing=0;startSize=6;endSize=6;" edge="1" target="Sh8WYW3R7UGOPEOma0MA-215" source="Sh8WYW3R7UGOPEOma0MA-111" parent="Sh8WYW3R7UGOPEOma0MA-6">
          <mxGeometry relative="1" as="geometry">
            <mxPoint x="-28070.625" y="500" as="sourcePoint" />
          </mxGeometry>
        </mxCell>
        <mxCell id="Sh8WYW3R7UGOPEOma0MA-215" value=")(())(" style="whiteSpace=wrap;html=1;" vertex="1" parent="Sh8WYW3R7UGOPEOma0MA-6">
          <mxGeometry x="5340" y="580" width="100" height="40" as="geometry" />
        </mxCell>
        <mxCell id="Sh8WYW3R7UGOPEOma0MA-216" value="" style="edgeStyle=elbowEdgeStyle;elbow=vertical;html=1;rounded=1;curved=0;sourcePerimeterSpacing=0;targetPerimeterSpacing=0;startSize=6;endSize=6;" edge="1" target="Sh8WYW3R7UGOPEOma0MA-217" source="Sh8WYW3R7UGOPEOma0MA-111" parent="Sh8WYW3R7UGOPEOma0MA-6">
          <mxGeometry relative="1" as="geometry">
            <mxPoint x="-27964.3125" y="590" as="sourcePoint" />
          </mxGeometry>
        </mxCell>
        <mxCell id="Sh8WYW3R7UGOPEOma0MA-217" value=")(()))" style="whiteSpace=wrap;html=1;" vertex="1" parent="Sh8WYW3R7UGOPEOma0MA-6">
          <mxGeometry x="5480" y="580" width="100" height="40" as="geometry" />
        </mxCell>
        <mxCell id="Sh8WYW3R7UGOPEOma0MA-218" value="" style="edgeStyle=elbowEdgeStyle;elbow=vertical;html=1;rounded=1;curved=0;sourcePerimeterSpacing=0;targetPerimeterSpacing=0;startSize=6;endSize=6;" edge="1" target="Sh8WYW3R7UGOPEOma0MA-219" source="Sh8WYW3R7UGOPEOma0MA-113" parent="Sh8WYW3R7UGOPEOma0MA-6">
          <mxGeometry relative="1" as="geometry">
            <mxPoint x="-23588" y="500" as="sourcePoint" />
          </mxGeometry>
        </mxCell>
        <mxCell id="Sh8WYW3R7UGOPEOma0MA-219" value=")()(((" style="whiteSpace=wrap;html=1;" vertex="1" parent="Sh8WYW3R7UGOPEOma0MA-6">
          <mxGeometry x="5620" y="580" width="100" height="40" as="geometry" />
        </mxCell>
        <mxCell id="Sh8WYW3R7UGOPEOma0MA-220" value="" style="edgeStyle=elbowEdgeStyle;elbow=vertical;html=1;rounded=1;curved=0;sourcePerimeterSpacing=0;targetPerimeterSpacing=0;startSize=6;endSize=6;" edge="1" target="Sh8WYW3R7UGOPEOma0MA-221" source="Sh8WYW3R7UGOPEOma0MA-113" parent="Sh8WYW3R7UGOPEOma0MA-6">
          <mxGeometry relative="1" as="geometry">
            <mxPoint x="-23649.25" y="590" as="sourcePoint" />
          </mxGeometry>
        </mxCell>
        <mxCell id="Sh8WYW3R7UGOPEOma0MA-221" value=")()(()" style="whiteSpace=wrap;html=1;" vertex="1" parent="Sh8WYW3R7UGOPEOma0MA-6">
          <mxGeometry x="5760" y="580" width="100" height="40" as="geometry" />
        </mxCell>
        <mxCell id="Sh8WYW3R7UGOPEOma0MA-222" value="" style="edgeStyle=elbowEdgeStyle;elbow=vertical;html=1;rounded=1;curved=0;sourcePerimeterSpacing=0;targetPerimeterSpacing=0;startSize=6;endSize=6;" edge="1" target="Sh8WYW3R7UGOPEOma0MA-223" source="Sh8WYW3R7UGOPEOma0MA-115" parent="Sh8WYW3R7UGOPEOma0MA-6">
          <mxGeometry relative="1" as="geometry">
            <mxPoint x="-19386.25" y="500" as="sourcePoint" />
          </mxGeometry>
        </mxCell>
        <mxCell id="Sh8WYW3R7UGOPEOma0MA-223" value=")()()(" style="whiteSpace=wrap;html=1;" vertex="1" parent="Sh8WYW3R7UGOPEOma0MA-6">
          <mxGeometry x="5900" y="580" width="100" height="40" as="geometry" />
        </mxCell>
        <mxCell id="Sh8WYW3R7UGOPEOma0MA-224" value="" style="edgeStyle=elbowEdgeStyle;elbow=vertical;html=1;rounded=1;curved=0;sourcePerimeterSpacing=0;targetPerimeterSpacing=0;startSize=6;endSize=6;" edge="1" target="Sh8WYW3R7UGOPEOma0MA-225" source="Sh8WYW3R7UGOPEOma0MA-115" parent="Sh8WYW3R7UGOPEOma0MA-6">
          <mxGeometry relative="1" as="geometry">
            <mxPoint x="-19279.0625" y="590" as="sourcePoint" />
          </mxGeometry>
        </mxCell>
        <mxCell id="Sh8WYW3R7UGOPEOma0MA-225" value=")()())" style="whiteSpace=wrap;html=1;" vertex="1" parent="Sh8WYW3R7UGOPEOma0MA-6">
          <mxGeometry x="6040" y="580" width="100" height="40" as="geometry" />
        </mxCell>
        <mxCell id="Sh8WYW3R7UGOPEOma0MA-226" value="" style="edgeStyle=elbowEdgeStyle;elbow=vertical;html=1;rounded=1;curved=0;sourcePerimeterSpacing=0;targetPerimeterSpacing=0;startSize=6;endSize=6;" edge="1" target="Sh8WYW3R7UGOPEOma0MA-227" source="Sh8WYW3R7UGOPEOma0MA-117" parent="Sh8WYW3R7UGOPEOma0MA-6">
          <mxGeometry relative="1" as="geometry">
            <mxPoint x="-14797.75" y="500" as="sourcePoint" />
          </mxGeometry>
        </mxCell>
        <mxCell id="Sh8WYW3R7UGOPEOma0MA-227" value=")())((" style="whiteSpace=wrap;html=1;" vertex="1" parent="Sh8WYW3R7UGOPEOma0MA-6">
          <mxGeometry x="6180" y="580" width="100" height="40" as="geometry" />
        </mxCell>
        <mxCell id="Sh8WYW3R7UGOPEOma0MA-228" value="" style="edgeStyle=elbowEdgeStyle;elbow=vertical;html=1;rounded=1;curved=0;sourcePerimeterSpacing=0;targetPerimeterSpacing=0;startSize=6;endSize=6;" edge="1" target="Sh8WYW3R7UGOPEOma0MA-229" source="Sh8WYW3R7UGOPEOma0MA-117" parent="Sh8WYW3R7UGOPEOma0MA-6">
          <mxGeometry relative="1" as="geometry">
            <mxPoint x="-14858.125" y="590" as="sourcePoint" />
          </mxGeometry>
        </mxCell>
        <mxCell id="Sh8WYW3R7UGOPEOma0MA-229" value=")())()" style="whiteSpace=wrap;html=1;" vertex="1" parent="Sh8WYW3R7UGOPEOma0MA-6">
          <mxGeometry x="6320" y="580" width="100" height="40" as="geometry" />
        </mxCell>
        <mxCell id="Sh8WYW3R7UGOPEOma0MA-230" value="" style="edgeStyle=elbowEdgeStyle;elbow=vertical;html=1;rounded=1;curved=0;sourcePerimeterSpacing=0;targetPerimeterSpacing=0;startSize=6;endSize=6;" edge="1" target="Sh8WYW3R7UGOPEOma0MA-231" source="Sh8WYW3R7UGOPEOma0MA-119" parent="Sh8WYW3R7UGOPEOma0MA-6">
          <mxGeometry relative="1" as="geometry">
            <mxPoint x="-10498.875" y="500" as="sourcePoint" />
          </mxGeometry>
        </mxCell>
        <mxCell id="Sh8WYW3R7UGOPEOma0MA-231" value=")()))(" style="whiteSpace=wrap;html=1;" vertex="1" parent="Sh8WYW3R7UGOPEOma0MA-6">
          <mxGeometry x="6460" y="580" width="100" height="40" as="geometry" />
        </mxCell>
        <mxCell id="Sh8WYW3R7UGOPEOma0MA-232" value="" style="edgeStyle=elbowEdgeStyle;elbow=vertical;html=1;rounded=1;curved=0;sourcePerimeterSpacing=0;targetPerimeterSpacing=0;startSize=6;endSize=6;" edge="1" target="Sh8WYW3R7UGOPEOma0MA-233" source="Sh8WYW3R7UGOPEOma0MA-119" parent="Sh8WYW3R7UGOPEOma0MA-6">
          <mxGeometry relative="1" as="geometry">
            <mxPoint x="-10390.8125" y="590" as="sourcePoint" />
          </mxGeometry>
        </mxCell>
        <mxCell id="Sh8WYW3R7UGOPEOma0MA-233" value=")())))" style="whiteSpace=wrap;html=1;" vertex="1" parent="Sh8WYW3R7UGOPEOma0MA-6">
          <mxGeometry x="6600" y="580" width="100" height="40" as="geometry" />
        </mxCell>
        <mxCell id="Sh8WYW3R7UGOPEOma0MA-234" value="" style="edgeStyle=elbowEdgeStyle;elbow=vertical;html=1;rounded=1;curved=0;sourcePerimeterSpacing=0;targetPerimeterSpacing=0;startSize=6;endSize=6;" edge="1" target="Sh8WYW3R7UGOPEOma0MA-235" source="Sh8WYW3R7UGOPEOma0MA-121" parent="Sh8WYW3R7UGOPEOma0MA-6">
          <mxGeometry relative="1" as="geometry">
            <mxPoint x="-5822" y="500" as="sourcePoint" />
          </mxGeometry>
        </mxCell>
        <mxCell id="Sh8WYW3R7UGOPEOma0MA-235" value="))((((" style="whiteSpace=wrap;html=1;" vertex="1" parent="Sh8WYW3R7UGOPEOma0MA-6">
          <mxGeometry x="6740" y="580" width="100" height="40" as="geometry" />
        </mxCell>
        <mxCell id="Sh8WYW3R7UGOPEOma0MA-236" value="" style="edgeStyle=elbowEdgeStyle;elbow=vertical;html=1;rounded=1;curved=0;sourcePerimeterSpacing=0;targetPerimeterSpacing=0;startSize=6;endSize=6;" edge="1" target="Sh8WYW3R7UGOPEOma0MA-237" source="Sh8WYW3R7UGOPEOma0MA-121" parent="Sh8WYW3R7UGOPEOma0MA-6">
          <mxGeometry relative="1" as="geometry">
            <mxPoint x="-5881.5" y="590" as="sourcePoint" />
          </mxGeometry>
        </mxCell>
        <mxCell id="Sh8WYW3R7UGOPEOma0MA-237" value="))((()" style="whiteSpace=wrap;html=1;" vertex="1" parent="Sh8WYW3R7UGOPEOma0MA-6">
          <mxGeometry x="6880" y="580" width="100" height="40" as="geometry" />
        </mxCell>
        <mxCell id="Sh8WYW3R7UGOPEOma0MA-238" value="" style="edgeStyle=elbowEdgeStyle;elbow=vertical;html=1;rounded=1;curved=0;sourcePerimeterSpacing=0;targetPerimeterSpacing=0;startSize=6;endSize=6;" edge="1" target="Sh8WYW3R7UGOPEOma0MA-239" source="Sh8WYW3R7UGOPEOma0MA-123" parent="Sh8WYW3R7UGOPEOma0MA-6">
          <mxGeometry relative="1" as="geometry">
            <mxPoint x="-1443.5" y="500" as="sourcePoint" />
          </mxGeometry>
        </mxCell>
        <mxCell id="Sh8WYW3R7UGOPEOma0MA-239" value="))(()(" style="whiteSpace=wrap;html=1;" vertex="1" parent="Sh8WYW3R7UGOPEOma0MA-6">
          <mxGeometry x="7020" y="580" width="100" height="40" as="geometry" />
        </mxCell>
        <mxCell id="Sh8WYW3R7UGOPEOma0MA-240" value="" style="edgeStyle=elbowEdgeStyle;elbow=vertical;html=1;rounded=1;curved=0;sourcePerimeterSpacing=0;targetPerimeterSpacing=0;startSize=6;endSize=6;" edge="1" target="Sh8WYW3R7UGOPEOma0MA-241" source="Sh8WYW3R7UGOPEOma0MA-123" parent="Sh8WYW3R7UGOPEOma0MA-6">
          <mxGeometry relative="1" as="geometry">
            <mxPoint x="-1334.5625" y="590" as="sourcePoint" />
          </mxGeometry>
        </mxCell>
        <mxCell id="Sh8WYW3R7UGOPEOma0MA-241" value="))(())" style="whiteSpace=wrap;html=1;" vertex="1" parent="Sh8WYW3R7UGOPEOma0MA-6">
          <mxGeometry x="7160" y="580" width="100" height="40" as="geometry" />
        </mxCell>
        <mxCell id="Sh8WYW3R7UGOPEOma0MA-242" value="" style="edgeStyle=elbowEdgeStyle;elbow=vertical;html=1;rounded=1;curved=0;sourcePerimeterSpacing=0;targetPerimeterSpacing=0;startSize=6;endSize=6;" edge="1" target="Sh8WYW3R7UGOPEOma0MA-243" source="Sh8WYW3R7UGOPEOma0MA-125" parent="Sh8WYW3R7UGOPEOma0MA-6">
          <mxGeometry relative="1" as="geometry">
            <mxPoint x="3304.25" y="500" as="sourcePoint" />
          </mxGeometry>
        </mxCell>
        <mxCell id="Sh8WYW3R7UGOPEOma0MA-243" value="))()((" style="whiteSpace=wrap;html=1;" vertex="1" parent="Sh8WYW3R7UGOPEOma0MA-6">
          <mxGeometry x="7300" y="580" width="100" height="40" as="geometry" />
        </mxCell>
        <mxCell id="Sh8WYW3R7UGOPEOma0MA-244" value="" style="edgeStyle=elbowEdgeStyle;elbow=vertical;html=1;rounded=1;curved=0;sourcePerimeterSpacing=0;targetPerimeterSpacing=0;startSize=6;endSize=6;" edge="1" target="Sh8WYW3R7UGOPEOma0MA-245" source="Sh8WYW3R7UGOPEOma0MA-125" parent="Sh8WYW3R7UGOPEOma0MA-6">
          <mxGeometry relative="1" as="geometry">
            <mxPoint x="3245.625" y="590" as="sourcePoint" />
          </mxGeometry>
        </mxCell>
        <mxCell id="Sh8WYW3R7UGOPEOma0MA-245" value="))()()" style="whiteSpace=wrap;html=1;" vertex="1" parent="Sh8WYW3R7UGOPEOma0MA-6">
          <mxGeometry x="7440" y="580" width="100" height="40" as="geometry" />
        </mxCell>
        <mxCell id="Sh8WYW3R7UGOPEOma0MA-246" value="" style="edgeStyle=elbowEdgeStyle;elbow=vertical;html=1;rounded=1;curved=0;sourcePerimeterSpacing=0;targetPerimeterSpacing=0;startSize=6;endSize=6;" edge="1" target="Sh8WYW3R7UGOPEOma0MA-247" source="Sh8WYW3R7UGOPEOma0MA-127" parent="Sh8WYW3R7UGOPEOma0MA-6">
          <mxGeometry relative="1" as="geometry">
            <mxPoint x="7744.875" y="500" as="sourcePoint" />
          </mxGeometry>
        </mxCell>
        <mxCell id="Sh8WYW3R7UGOPEOma0MA-247" value="))())(" style="whiteSpace=wrap;html=1;" vertex="1" parent="Sh8WYW3R7UGOPEOma0MA-6">
          <mxGeometry x="7580" y="580" width="100" height="40" as="geometry" />
        </mxCell>
        <mxCell id="Sh8WYW3R7UGOPEOma0MA-248" value="" style="edgeStyle=elbowEdgeStyle;elbow=vertical;html=1;rounded=1;curved=0;sourcePerimeterSpacing=0;targetPerimeterSpacing=0;startSize=6;endSize=6;" edge="1" target="Sh8WYW3R7UGOPEOma0MA-249" source="Sh8WYW3R7UGOPEOma0MA-127" parent="Sh8WYW3R7UGOPEOma0MA-6">
          <mxGeometry relative="1" as="geometry">
            <mxPoint x="7854.6875" y="590" as="sourcePoint" />
          </mxGeometry>
        </mxCell>
        <mxCell id="Sh8WYW3R7UGOPEOma0MA-249" value="))()))" style="whiteSpace=wrap;html=1;" vertex="1" parent="Sh8WYW3R7UGOPEOma0MA-6">
          <mxGeometry x="7720" y="580" width="100" height="40" as="geometry" />
        </mxCell>
        <mxCell id="Sh8WYW3R7UGOPEOma0MA-250" value="" style="edgeStyle=elbowEdgeStyle;elbow=vertical;html=1;rounded=1;curved=0;sourcePerimeterSpacing=0;targetPerimeterSpacing=0;startSize=6;endSize=6;" edge="1" target="Sh8WYW3R7UGOPEOma0MA-251" source="Sh8WYW3R7UGOPEOma0MA-129" parent="Sh8WYW3R7UGOPEOma0MA-6">
          <mxGeometry relative="1" as="geometry">
            <mxPoint x="8172.75" y="500" as="sourcePoint" />
          </mxGeometry>
        </mxCell>
        <mxCell id="Sh8WYW3R7UGOPEOma0MA-251" value=")))(((" style="whiteSpace=wrap;html=1;" vertex="1" parent="Sh8WYW3R7UGOPEOma0MA-6">
          <mxGeometry x="7860" y="580" width="100" height="40" as="geometry" />
        </mxCell>
        <mxCell id="Sh8WYW3R7UGOPEOma0MA-252" value="" style="edgeStyle=elbowEdgeStyle;elbow=vertical;html=1;rounded=1;curved=0;sourcePerimeterSpacing=0;targetPerimeterSpacing=0;startSize=6;endSize=6;" edge="1" target="Sh8WYW3R7UGOPEOma0MA-253" source="Sh8WYW3R7UGOPEOma0MA-129" parent="Sh8WYW3R7UGOPEOma0MA-6">
          <mxGeometry relative="1" as="geometry">
            <mxPoint x="8115" y="590" as="sourcePoint" />
          </mxGeometry>
        </mxCell>
        <mxCell id="Sh8WYW3R7UGOPEOma0MA-253" value=")))(()" style="whiteSpace=wrap;html=1;" vertex="1" parent="Sh8WYW3R7UGOPEOma0MA-6">
          <mxGeometry x="8000" y="580" width="100" height="40" as="geometry" />
        </mxCell>
        <mxCell id="Sh8WYW3R7UGOPEOma0MA-254" value="" style="edgeStyle=elbowEdgeStyle;elbow=vertical;html=1;rounded=1;curved=0;sourcePerimeterSpacing=0;targetPerimeterSpacing=0;startSize=6;endSize=6;" edge="1" target="Sh8WYW3R7UGOPEOma0MA-255" source="Sh8WYW3R7UGOPEOma0MA-131" parent="Sh8WYW3R7UGOPEOma0MA-6">
          <mxGeometry relative="1" as="geometry">
            <mxPoint x="8269" y="500" as="sourcePoint" />
          </mxGeometry>
        </mxCell>
        <mxCell id="Sh8WYW3R7UGOPEOma0MA-255" value=")))()(" style="whiteSpace=wrap;html=1;" vertex="1" parent="Sh8WYW3R7UGOPEOma0MA-6">
          <mxGeometry x="8140" y="580" width="100" height="40" as="geometry" />
        </mxCell>
        <mxCell id="Sh8WYW3R7UGOPEOma0MA-256" value="" style="edgeStyle=elbowEdgeStyle;elbow=vertical;html=1;rounded=1;curved=0;sourcePerimeterSpacing=0;targetPerimeterSpacing=0;startSize=6;endSize=6;" edge="1" target="Sh8WYW3R7UGOPEOma0MA-257" source="Sh8WYW3R7UGOPEOma0MA-131" parent="Sh8WYW3R7UGOPEOma0MA-6">
          <mxGeometry relative="1" as="geometry">
            <mxPoint x="8379.6875" y="590" as="sourcePoint" />
          </mxGeometry>
        </mxCell>
        <mxCell id="Sh8WYW3R7UGOPEOma0MA-257" value=")))())" style="whiteSpace=wrap;html=1;" vertex="1" parent="Sh8WYW3R7UGOPEOma0MA-6">
          <mxGeometry x="8280" y="580" width="100" height="40" as="geometry" />
        </mxCell>
        <mxCell id="Sh8WYW3R7UGOPEOma0MA-258" value="" style="edgeStyle=elbowEdgeStyle;elbow=vertical;html=1;rounded=1;curved=0;sourcePerimeterSpacing=0;targetPerimeterSpacing=0;startSize=6;endSize=6;" edge="1" target="Sh8WYW3R7UGOPEOma0MA-259" source="Sh8WYW3R7UGOPEOma0MA-133" parent="Sh8WYW3R7UGOPEOma0MA-6">
          <mxGeometry relative="1" as="geometry">
            <mxPoint x="8705.625" y="500" as="sourcePoint" />
          </mxGeometry>
        </mxCell>
        <mxCell id="Sh8WYW3R7UGOPEOma0MA-259" value="))))((" style="whiteSpace=wrap;html=1;" vertex="1" parent="Sh8WYW3R7UGOPEOma0MA-6">
          <mxGeometry x="8420" y="580" width="100" height="40" as="geometry" />
        </mxCell>
        <mxCell id="Sh8WYW3R7UGOPEOma0MA-260" value="" style="edgeStyle=elbowEdgeStyle;elbow=vertical;html=1;rounded=1;curved=0;sourcePerimeterSpacing=0;targetPerimeterSpacing=0;startSize=6;endSize=6;" edge="1" target="Sh8WYW3R7UGOPEOma0MA-261" source="Sh8WYW3R7UGOPEOma0MA-133" parent="Sh8WYW3R7UGOPEOma0MA-6">
          <mxGeometry relative="1" as="geometry">
            <mxPoint x="8648.75" y="590" as="sourcePoint" />
          </mxGeometry>
        </mxCell>
        <mxCell id="Sh8WYW3R7UGOPEOma0MA-261" value="))))()" style="whiteSpace=wrap;html=1;" vertex="1" parent="Sh8WYW3R7UGOPEOma0MA-6">
          <mxGeometry x="8560" y="580" width="100" height="40" as="geometry" />
        </mxCell>
        <mxCell id="Sh8WYW3R7UGOPEOma0MA-262" value="" style="edgeStyle=elbowEdgeStyle;elbow=vertical;html=1;rounded=1;curved=0;sourcePerimeterSpacing=0;targetPerimeterSpacing=0;startSize=6;endSize=6;" edge="1" target="Sh8WYW3R7UGOPEOma0MA-263" source="Sh8WYW3R7UGOPEOma0MA-135" parent="Sh8WYW3R7UGOPEOma0MA-6">
          <mxGeometry relative="1" as="geometry">
            <mxPoint x="8810.625" y="500" as="sourcePoint" />
          </mxGeometry>
        </mxCell>
        <mxCell id="Sh8WYW3R7UGOPEOma0MA-263" value=")))))(" style="whiteSpace=wrap;html=1;" vertex="1" parent="Sh8WYW3R7UGOPEOma0MA-6">
          <mxGeometry x="8700" y="580" width="100" height="40" as="geometry" />
        </mxCell>
        <mxCell id="Sh8WYW3R7UGOPEOma0MA-264" value="" style="edgeStyle=elbowEdgeStyle;elbow=vertical;html=1;rounded=1;curved=0;sourcePerimeterSpacing=0;targetPerimeterSpacing=0;startSize=6;endSize=6;" edge="1" target="Sh8WYW3R7UGOPEOma0MA-265" source="Sh8WYW3R7UGOPEOma0MA-135" parent="Sh8WYW3R7UGOPEOma0MA-6">
          <mxGeometry relative="1" as="geometry">
            <mxPoint x="8922.1875" y="590" as="sourcePoint" />
          </mxGeometry>
        </mxCell>
        <mxCell id="Sh8WYW3R7UGOPEOma0MA-265" value="))))))" style="whiteSpace=wrap;html=1;" vertex="1" parent="Sh8WYW3R7UGOPEOma0MA-6">
          <mxGeometry x="8840" y="580" width="100" height="40" as="geometry" />
        </mxCell>
      </root>
    </mxGraphModel>
  </diagram>
</mxfile>
